<svg xmlns="http://www.w3.org/2000/svg" viewBox="0 0 1128.794 257.812"><linearGradient id="b" gradientUnits="userSpaceOnUse" x1="-39.563" y1="170.897" x2="1144.497" y2="170.897"><stop offset="0" stop-color="#7ac6f0"/><stop offset="1" stop-color="#ee73a7"/></linearGradient><path d="M15.422 244.147C5.139 235.263 0 223.838 0 209.868c0-20.786 7.904-35.005 23.719-42.661 15.812-7.653 43.554-11.482 83.227-11.482v-10.561c0-17.208-9.109-25.814-27.323-25.814-13.3 0-29.447 4.023-48.443 12.069-5.925 2.459-11.147 1.482-15.674-2.934-4.525-4.413-6.621-9.974-6.286-16.679.336-6.705 3.521-11.566 9.555-14.583 7.711-3.688 17.602-6.815 29.67-9.387 12.069-2.569 23.523-3.855 34.363-3.855 11.063 0 20.896 1.257 29.503 3.771 8.604 2.515 16.26 6.538 22.965 12.069s11.817 13.075 15.338 22.629c3.52 9.555 5.279 21.037 5.279 34.447v71.576c0 7.041-1.621 12.965-4.86 17.769-3.243 4.806-7.182 7.769-11.818 8.884-4.638 1.116-9.248 1.089-13.829-.084-4.583-1.173-8.493-4.19-11.733-9.052-3.242-4.861-4.861-10.867-4.861-18.02v-2.85c-7.488 22.017-25.479 32.91-53.976 32.688-15.985-.225-29.115-4.776-39.394-13.661zm78.113-27.323c8.826-8.101 13.242-18.297 13.242-30.592v-6.705c-6.482 0-11.875.058-16.176.168-4.303.112-8.884.364-13.745.754-4.861.393-8.801.951-11.817 1.676a54.917 54.917 0 0 0-8.969 3.018c-2.962 1.286-5.225 2.85-6.788 4.693-1.566 1.844-2.824 4.081-3.771 6.705-.951 2.627-1.37 5.673-1.258 9.136.223 6.035 2.15 11.063 5.783 15.086 3.63 4.023 8.743 6.314 15.338 6.873 9.945.896 19.332-2.708 28.161-10.812z" fill="url(#b)"/><linearGradient id="c" gradientUnits="userSpaceOnUse" x1="-39.563" y1="170.978" x2="1144.497" y2="170.978"><stop offset="0" stop-color="#7ac6f0"/><stop offset="1" stop-color="#ee73a7"/></linearGradient><path d="M371.459 252.193c-4.471-2.402-8.465-6.982-11.985-13.745-3.52-6.76-7.236-17.182-11.146-31.262l-24.809-75.6-24.977 75.6c-3.913 14.081-7.627 24.502-11.147 31.262-3.52 6.763-7.517 11.343-11.985 13.745-4.471 2.404-10.728 3.604-18.773 3.604-9.053 0-16.177-3.604-21.373-10.812s-10.142-19.471-14.835-36.794L192.1 119.685c-3.018-10.838-1.399-19.555 4.86-26.15 6.258-6.592 13.746-8.575 22.462-5.951 8.717 2.627 14.526 9.696 17.434 21.205l26.987 94.542 26.15-79.79c1.229-4.468 2.095-7.515 2.598-9.136.503-1.619 1.367-4.191 2.599-7.711 1.229-3.52 2.317-5.951 3.269-7.292.948-1.341 2.263-3.101 3.939-5.28 1.676-2.179 3.462-3.688 5.364-4.526 1.898-.838 4.19-1.619 6.872-2.347 2.683-.726 5.642-1.09 8.885-1.09 2.347 0 4.497.113 6.453.335 1.954.225 3.771.728 5.448 1.508 1.676.783 3.155 1.454 4.441 2.012 1.284.561 2.541 1.592 3.771 3.101 1.229 1.509 2.206 2.627 2.934 3.353.726.728 1.593 2.237 2.599 4.526 1.006 2.292 1.731 3.855 2.179 4.693.445.838 1.116 2.711 2.012 5.616.894 2.907 1.451 4.835 1.677 5.783.223.951.838 3.101 1.844 6.454l26.149 79.79 26.988-94.542a35.011 35.011 0 0 1 2.179-6.034c4.023-9.162 10.226-14.358 18.606-15.589 7.376-1.116 13.633 1.006 18.774 6.37 6.479 6.595 8.214 15.312 5.196 26.15l-28.329 88.506c-4.693 17.323-9.639 29.586-14.835 36.794s-12.32 10.812-21.372 10.812c-8.045 0-14.305-1.199-18.774-3.604z" fill="url(#c)"/><linearGradient id="d" gradientUnits="userSpaceOnUse" x1="-39.563" y1="170.897" x2="1144.497" y2="170.897"><stop offset="0" stop-color="#7ac6f0"/><stop offset="1" stop-color="#ee73a7"/></linearGradient><path d="M495.503 244.147c-10.283-8.884-15.422-20.309-15.422-34.28 0-20.786 7.904-35.005 23.719-42.661 15.812-7.653 43.554-11.482 83.227-11.482v-10.561c0-17.208-9.109-25.814-27.323-25.814-13.3 0-29.447 4.023-48.443 12.069-5.925 2.459-11.147 1.482-15.674-2.934-4.525-4.413-6.621-9.974-6.286-16.679.336-6.705 3.521-11.566 9.555-14.583 7.711-3.688 17.602-6.815 29.67-9.387 12.069-2.569 23.523-3.855 34.363-3.855 11.063 0 20.896 1.257 29.503 3.771 8.604 2.515 16.26 6.538 22.965 12.069s11.817 13.075 15.338 22.629c3.52 9.555 5.279 21.037 5.279 34.447v71.576c0 7.041-1.621 12.965-4.86 17.769-3.243 4.806-7.182 7.769-11.818 8.884-4.638 1.116-9.248 1.089-13.829-.084-4.583-1.173-8.493-4.19-11.733-9.052-3.242-4.861-4.861-10.867-4.861-18.02v-2.85c-7.488 22.017-25.479 32.91-53.976 32.688-15.985-.224-29.115-4.775-39.394-13.66zm78.113-27.323c8.826-8.101 13.242-18.297 13.242-30.592v-6.705c-6.482 0-11.875.058-16.176.168-4.303.112-8.884.364-13.745.754-4.861.393-8.801.951-11.817 1.676a54.917 54.917 0 0 0-8.969 3.018c-2.962 1.286-5.225 2.85-6.788 4.693-1.566 1.844-2.824 4.081-3.771 6.705-.951 2.627-1.37 5.673-1.258 9.136.223 6.035 2.15 11.063 5.783 15.086 3.63 4.023 8.743 6.314 15.338 6.873 9.945.896 19.332-2.708 28.161-10.812z" fill="url(#d)"/><linearGradient id="e" gradientUnits="userSpaceOnUse" x1="-39.563" y1="133.849" x2="1144.497" y2="133.849"><stop offset="0" stop-color="#7ac6f0"/><stop offset="1" stop-color="#ee73a7"/></linearGradient><path d="M681.902 246.83c-4.022-5.977-6.034-14.89-6.034-26.737V47.606c0-11.844 2.012-20.757 6.034-26.737 4.023-5.977 10.561-8.968 19.612-8.968 18.439 0 27.658 11.901 27.658 35.705V160.25l61.52-67.218c4.022-4.693 8.52-7.569 13.493-8.632 4.972-1.061 9.358-.391 13.159 2.011 3.798 2.404 6.982 5.505 9.555 9.303 2.569 3.8 3.688 8.271 3.353 13.41-.336 5.142-2.347 9.835-6.035 14.081l-41.235 42.41 47.438 51.796 2.347 3.353c4.581 7.71 4.469 15.254-.335 22.629-4.022 6.26-9.722 10.058-17.098 11.398-9.612 1.564-17.826-2.011-24.641-10.728l-61.52-72.582v48.611c0 23.803-9.219 35.705-27.658 35.705-9.052 0-15.589-2.988-19.613-8.967z" fill="url(#e)"/><linearGradient id="f" gradientUnits="userSpaceOnUse" x1="-39.563" y1="127.899" x2="1144.497" y2="127.899"><stop offset="0" stop-color="#7ac6f0"/><stop offset="1" stop-color="#ee73a7"/></linearGradient><path d="M873.164 45.93c-5.363-4.917-8.046-11.399-8.046-19.445 0-7.934 2.683-14.332 8.046-19.193C878.528 2.431 885.568 0 894.285 0s15.699 2.431 20.953 7.292c5.252 4.861 7.879 11.26 7.879 19.193 0 8.046-2.656 14.528-7.963 19.445-5.309 4.918-12.32 7.375-21.037 7.375-8.606 0-15.589-2.457-20.953-7.375zm.587 200.983c-4.19-5.922-6.286-14.861-6.286-26.82v-97.391c0-11.844 1.983-20.757 5.951-26.736 3.965-5.977 10.477-8.968 19.528-8.968 9.609 0 16.621 2.991 21.037 8.968 4.413 5.979 6.621 14.893 6.621 26.736v97.391c0 12.069-1.956 21.037-5.867 26.904-3.913 5.867-10.618 8.8-20.115 8.8-9.722 0-16.679-2.959-20.869-8.884z" fill="url(#f)"/><linearGradient id="g" gradientUnits="userSpaceOnUse" x1="-39.563" y1="169.721" x2="1144.497" y2="169.721"><stop offset="0" stop-color="#7ac6f0"/><stop offset="1" stop-color="#ee73a7"/></linearGradient><path d="M966.699 246.83c-4.023-5.977-6.034-14.945-6.034-26.904v-103.76c0-9.945 2.205-17.292 6.621-22.043 4.413-4.749 11.202-7.124 20.366-7.124 17.434 0 26.149 9.835 26.149 29.502v.67c9.723-22.349 29.39-33.525 59.005-33.525 16.649 0 30.144 5.699 40.481 17.098 10.335 11.398 15.506 27.268 15.506 47.606v71.576c0 11.847-2.208 20.786-6.621 26.82-4.416 6.035-11.428 9.052-21.037 9.052-9.052 0-15.59-2.988-19.612-8.968-4.023-5.977-6.035-14.945-6.035-26.904v-70.57c0-9.833-2.543-17.433-7.627-22.797-5.086-5.364-11.595-8.046-19.528-8.046-9.723 0-17.881 3.549-24.474 10.644-6.595 7.098-9.89 16.121-9.89 27.072v63.698c0 11.847-2.208 20.786-6.621 26.82-4.416 6.035-11.428 9.052-21.037 9.052-9.051-.002-15.588-2.99-19.612-8.969z" fill="url(#g)"/></svg>