<svg xmlns="http://www.w3.org/2000/svg" viewBox="0 0 282.292 359.603"><path d="M275.542 359.103h-202a6.25 6.25 0 0 1-6.25-6.25V74.502a6.25 6.25 0 0 1 6.25-6.25h202a6.25 6.25 0 0 1 6.25 6.25v278.352a6.25 6.25 0 0 1-6.25 6.249z" fill="none" stroke="#5e6d8b" stroke-miterlimit="10"/><path fill="none" stroke="#5e6d8b" stroke-miterlimit="10" d="M76.792 77.752h195.5v251h-195.5z"/><circle cx="174.542" cy="343.02" r="9.833" fill="none" stroke="#5e6d8b" stroke-miterlimit="10"/><path fill="#fff" stroke="#5e6d8b" stroke-miterlimit="10" d="M102.339 258.755l56.494 38.721"/><path fill="none" stroke="#5e6d8b" stroke-miterlimit="10" d="M102 297.476l56.833-38.721"/><path fill="#fff" stroke="#5e6d8b" stroke-miterlimit="10" d="M102 258.755l28.417 25.014 28.416-25.014"/><path fill="none" stroke="#5e6d8b" stroke-miterlimit="10" d="M102 258.755h56.833v38.721H102z"/><circle cx="130.586" cy="269.376" r="6.614" fill="#ee73a7"/><path fill="#fbfbfb" d="M133.798 266.459l-4.245 4.245-2.179-2.178-.794.794 2.973 2.972 5.039-5.039z"/><path fill="#fff" stroke="#5e6d8b" stroke-miterlimit="10" d="M102.339 207.158l56.494 38.721"/><path fill="none" stroke="#5e6d8b" stroke-miterlimit="10" d="M102 245.879l56.833-38.721"/><path fill="#fff" stroke="#5e6d8b" stroke-miterlimit="10" d="M102 207.158l28.417 25.015 28.416-25.015"/><path fill="none" stroke="#5e6d8b" stroke-miterlimit="10" d="M102 207.158h56.833v38.721H102z"/><circle cx="130.586" cy="217.779" r="6.614" fill="#ee73a7"/><path fill="#fbfbfb" d="M133.798 214.862l-4.245 4.246-2.179-2.179-.794.794 2.973 2.973 5.039-5.039z"/><g><path fill="#fff" stroke="#5e6d8b" stroke-miterlimit="10" d="M102.339 155.562l56.494 38.721"/><path fill="none" stroke="#5e6d8b" stroke-miterlimit="10" d="M102 194.283l56.833-38.721"/><path fill="#fff" stroke="#5e6d8b" stroke-miterlimit="10" d="M102 155.562l28.417 25.014 28.416-25.014"/><path fill="none" stroke="#5e6d8b" stroke-miterlimit="10" d="M102 155.562h56.833v38.721H102z"/><circle cx="130.586" cy="166.183" r="6.614" fill="#ee73a7"/><path fill="#fbfbfb" d="M133.798 163.266l-4.245 4.245-2.179-2.178-.794.794 2.973 2.972 5.039-5.039z"/></g><g><path fill="#fff" stroke="#5e6d8b" stroke-miterlimit="10" d="M102.339 103.965l56.494 38.721"/><path fill="none" stroke="#5e6d8b" stroke-miterlimit="10" d="M102 142.686l56.833-38.721"/><path fill="#fff" stroke="#5e6d8b" stroke-miterlimit="10" d="M102 103.965l28.417 25.015 28.416-25.015"/><path fill="none" stroke="#5e6d8b" stroke-miterlimit="10" d="M102 103.965h56.833v38.721H102z"/><circle cx="130.586" cy="114.586" r="6.614" fill="#ee73a7"/><path fill="#fbfbfb" d="M133.798 111.669l-4.245 4.245-2.179-2.178-.794.794 2.973 2.973 5.039-5.04z"/></g><g><path fill="#fff" stroke="#5e6d8b" stroke-miterlimit="10" d="M190.589 258.755l56.494 38.721"/><path fill="none" stroke="#5e6d8b" stroke-miterlimit="10" d="M190.25 297.476l56.833-38.721"/><path fill="#fff" stroke="#5e6d8b" stroke-miterlimit="10" d="M190.25 258.755l28.417 25.014 28.416-25.014"/><path fill="none" stroke="#5e6d8b" stroke-miterlimit="10" d="M190.25 258.755h56.833v38.721H190.25z"/><circle cx="218.836" cy="269.376" r="6.614" fill="#ee73a7"/><path fill="#fbfbfb" d="M222.048 266.459l-4.245 4.245-2.179-2.178-.794.794 2.973 2.972 5.039-5.039z"/></g><g><path fill="#fff" stroke="#5e6d8b" stroke-miterlimit="10" d="M190.589 207.158l56.494 38.721"/><path fill="none" stroke="#5e6d8b" stroke-miterlimit="10" d="M190.25 245.879l56.833-38.721"/><path fill="#fff" stroke="#5e6d8b" stroke-miterlimit="10" d="M190.25 207.158l28.417 25.015 28.416-25.015"/><path fill="none" stroke="#5e6d8b" stroke-miterlimit="10" d="M190.25 207.158h56.833v38.721H190.25z"/><circle cx="218.836" cy="217.779" r="6.614" fill="#ee73a7"/><path fill="#fbfbfb" d="M222.048 214.862l-4.245 4.246-2.179-2.179-.794.794 2.973 2.973 5.039-5.039z"/></g><g><path fill="#fff" stroke="#5e6d8b" stroke-miterlimit="10" d="M190.589 155.562l56.494 38.721"/><path fill="none" stroke="#5e6d8b" stroke-miterlimit="10" d="M190.25 194.283l56.833-38.721"/><path fill="#fff" stroke="#5e6d8b" stroke-miterlimit="10" d="M190.25 155.562l28.417 25.014 28.416-25.014"/><path fill="none" stroke="#5e6d8b" stroke-miterlimit="10" d="M190.25 155.562h56.833v38.721H190.25z"/><circle cx="218.836" cy="166.183" r="6.614" fill="#ee73a7"/><path fill="#fbfbfb" d="M222.048 163.266l-4.245 4.245-2.179-2.178-.794.794 2.973 2.972 5.039-5.039z"/></g><g><path fill="#fff" stroke="#5e6d8b" stroke-miterlimit="10" d="M190.589 103.965l56.494 38.721"/><path fill="none" stroke="#5e6d8b" stroke-miterlimit="10" d="M190.25 142.686l56.833-38.721"/><path fill="#fff" stroke="#5e6d8b" stroke-miterlimit="10" d="M190.25 103.965l28.417 25.015 28.416-25.015"/><path fill="none" stroke="#5e6d8b" stroke-miterlimit="10" d="M190.25 103.965h56.833v38.721H190.25z"/><circle cx="218.836" cy="114.586" r="6.614" fill="#ee73a7"/><path fill="#fbfbfb" d="M222.048 111.669l-4.245 4.245-2.179-2.178-.794.794 2.973 2.973 5.039-5.04z"/></g><g><path fill="#fff" stroke="#5e6d8b" stroke-miterlimit="10" d="M134.592 56.485L67.546.651.5 56.485v91.359h134.092z"/><path fill="none" stroke="#5e6d8b" stroke-miterlimit="10" d="M.5 147.844l134.092-91.359M.5 56.485l134.092 91.359"/><path fill="#7ac6f0" d="M91.583 31.987l-31.77 31.771-16.304-16.304-5.943 5.943 22.247 22.247 37.713-37.713z"/></g></svg>