<svg xmlns="http://www.w3.org/2000/svg" viewBox="0 0 368.328 332.959"><path d="M98.127 97.5c0-53.572 43.428-97 97-97 25.059 0 47.898 9.502 65.111 25.1" fill="none" stroke="#525e77" stroke-miterlimit="10"/><path fill="#525e77" d="M255.033 26.479l-.025-1 4.929-.119-.478-4.908.996-.097.582 5.978z"/><path d="M138.044 332.459H7.428A6.928 6.928 0 0 1 .5 325.531v-271a6.928 6.928 0 0 1 6.928-6.928h130.616a6.928 6.928 0 0 1 6.928 6.928V325.53a6.928 6.928 0 0 1-6.928 6.929z" fill="none" stroke="#525e77" stroke-miterlimit="10"/><path fill="none" stroke="#525e77" stroke-miterlimit="10" d="M5.952 72.136h133.569v227.612H5.952zM44.455 58.166h56.562v5.793H44.455z"/><circle cx="72.736" cy="317.012" r="11.131" fill="none" stroke="#525e77" stroke-miterlimit="10"/><circle cx="29.481" cy="128.36" r="7.226" fill="none" stroke="#ee73a7" stroke-miterlimit="10"/><circle cx="29.481" cy="161.026" r="7.226" fill="none" stroke="#ee73a7" stroke-miterlimit="10"/><circle cx="29.481" cy="193.693" r="7.226" fill="none" stroke="#ee73a7" stroke-miterlimit="10"/><circle cx="29.481" cy="226.36" r="7.226" fill="none" stroke="#ee73a7" stroke-miterlimit="10"/><path fill="none" stroke="#525e77" stroke-miterlimit="10" d="M49.707 135.65h23.029M49.707 128.36H88.04M49.707 121.069h55M49.707 168.317h23.029M49.707 161.026H88.04M49.707 153.736h55M49.707 200.984h23.029M49.707 193.693H88.04M49.707 186.402h55M49.707 233.65h23.029M49.707 226.36H88.04M49.707 219.069h55"/><circle cx="72.736" cy="267.684" r="13.5" fill="#7ac6f0"/><path fill="#fbfbfb" d="M79.292 261.731l-8.665 8.665-4.446-4.447-1.621 1.621 6.067 6.067 10.286-10.285z"/><g><path fill="#fff" stroke="#5e6d8b" stroke-miterlimit="10" d="M252.52 55.04l115.308 79.032"/><path fill="none" stroke="#5e6d8b" stroke-miterlimit="10" d="M251.828 134.072l116-79.032"/><path fill="#fff" stroke="#5e6d8b" stroke-miterlimit="10" d="M251.828 55.04l58 51.056 58-51.056"/><path fill="none" stroke="#5e6d8b" stroke-miterlimit="10" d="M251.828 55.04h116v79.032h-116z"/><circle cx="310.174" cy="76.718" r="13.5" fill="#ee73a7"/><path fill="#fbfbfb" d="M316.73 70.765l-8.665 8.664-4.447-4.446-1.62 1.621 6.067 6.067 10.286-10.286z"/></g></svg>