<svg xmlns="http://www.w3.org/2000/svg" viewBox="0 0 225.262 336.59"><path d="M87.612 25.773s9.781 23.042-5.777 38.6 2.757 32.692 2.757 32.692" fill="none" stroke="#525e77" stroke-miterlimit="10"/><path fill="#fff" stroke="#525e77" stroke-miterlimit="10" d="M129.793 284.049H26.621L7.83 97.065h140.754z"/><path fill="#7ac6f0" d="M110.884 159.955l-37.431 37.431-19.209-19.209-7.002 7.002 26.211 26.211 44.433-44.433z"/><path fill="#fff" stroke="#525e77" stroke-miterlimit="10" d="M.5 90.633h155.414v12.864H.5z"/><g fill="#fff" stroke="#525e77" stroke-miterlimit="10"><path d="M209.424 259.037s15.338 9.385 15.338 27.323c0 17.938-14.089 16.497-14.089 16.497s-8.451-.464-11.585-5.598"/><path d="M175.529 233.823s33.003.281 35.032 32.74c2.029 32.459-24.136 38.597-29.515 35.63"/><path d="M132.726 315.726s61.199 6.83 57.548-43.685-42.806-60.658-77.091-40.371M139.759 236.336s17.041-2.029 26.17 6.289"/><path d="M69.972 286.36c-4.057-13.913 10.82-42.315 34.623-42.315s28.131 37.058 28.131 37.058v34.623s-19.205 5.41-27.049 13.795-11.631-14.066-39.492-18.394c0 0-7.033-12.207 3.787-24.767z"/><path d="M69.972 286.36s5.951-4.175 11.361-4.175c4.771 0 19.851 7.153 27.242 25.17a36.507 36.507 0 0 1 2.7 15.707 24.18 24.18 0 0 1-.188 2.072M66.185 311.127s-3.42 14.56 7.514 21.918c4.052 2.727 9.093 3.599 13.895 2.711 3.84-.71 8.233-2.495 9.932-6.84"/></g><path d="M67.481.195s9.781 23.042-5.777 38.6 2.757 32.692 2.757 32.692" fill="none" stroke="#525e77" stroke-miterlimit="10"/></svg>