<svg xmlns="http://www.w3.org/2000/svg" viewBox="0 0 1667.781 625.803"><path d="M1526.77 287.585c-.367-.344-9.006-8.542-9.179-18.909-.088-5.282 2.068-10.161 6.409-14.502 15.145-15.145 5.768-37.823 5.671-38.051l.92-.391c.1.233 9.732 23.533-5.884 39.148-4.142 4.142-6.2 8.778-6.116 13.778.166 9.946 8.775 18.114 8.862 18.195l-.683.732z" fill="#525e77"/><g fill="#525e77"><path d="M187.1 496.825c-1.771-1.09-3.138-2.607-4.101-4.551-.963-1.944-1.445-4.156-1.445-6.636 0-2.572.507-4.848 1.522-6.826s2.437-3.507 4.266-4.585c1.828-1.079 3.913-1.618 6.255-1.618 2.226 0 4.326.52 6.298 1.558.704.357 1.056.859 1.056 1.505a1.742 1.742 0 0 1-.234.866 1.986 1.986 0 0 1-.623.649 1.778 1.778 0 0 1-.407.182c-.15.046-.3.069-.45.069h-.139a.543.543 0 0 1-.138-.017 7.063 7.063 0 0 1-.139-.035.647.647 0 0 1-.138-.052c-.023-.012-.266-.124-.727-.337s-.831-.369-1.107-.467-.707-.205-1.289-.32a9.233 9.233 0 0 0-1.791-.173c-2.48 0-4.381.854-5.702 2.561s-1.981 4.026-1.981 6.956c0 2.954.669 5.272 2.007 6.956 1.338 1.685 3.288 2.526 5.849 2.526.681 0 1.353-.083 2.016-.251.664-.167 1.186-.337 1.566-.51.381-.173.871-.421 1.471-.744.115-.058.233-.104.354-.138.121-.035.239-.052.355-.052.426 0 .79.173 1.09.519a1.747 1.747 0 0 1 .416 1.514c-.023.11-.058.216-.104.32a2.112 2.112 0 0 1-.173.312 1.674 1.674 0 0 1-.251.294 2.343 2.343 0 0 1-.337.26c-2.007 1.269-4.395 1.903-7.164 1.903-2.282-.003-4.31-.548-6.081-1.638zM208.072 494.939c-2.117-2.347-3.175-5.482-3.175-9.404 0-2.584.464-4.845 1.393-6.783s2.298-3.446 4.11-4.525c1.811-1.079 3.968-1.618 6.471-1.618 2.515 0 4.678.54 6.489 1.618s3.178 2.584 4.101 4.516 1.384 4.196 1.384 6.792c0 2.584-.461 4.842-1.384 6.774-.923 1.932-2.29 3.44-4.101 4.525-1.811 1.084-3.974 1.626-6.489 1.626-3.749 0-6.682-1.173-8.799-3.521zm14.336-2.457c1.269-1.701 1.903-4.017 1.903-6.947 0-2.918-.631-5.231-1.895-6.938s-3.112-2.561-5.546-2.561c-2.422 0-4.265.854-5.528 2.561s-1.895 4.02-1.895 6.938c0 2.93.631 5.246 1.895 6.947 1.263 1.702 3.106 2.552 5.528 2.552s4.269-.85 5.538-2.552zM245.802 496.816c-.45-.323-.802-.784-1.055-1.384l-7.008-16.594v17.39c0 .45-.196.802-.588 1.056-.393.254-.856.381-1.393.381-.536 0-1.001-.127-1.393-.381-.392-.253-.588-.605-.588-1.056v-19.501c0-.796.32-1.447.96-1.955.64-.507 1.399-.761 2.275-.761.727 0 1.407.199 2.042.597.634.398 1.119.995 1.454 1.791l6.713 15.694v5.208c-.496 0-.969-.161-1.419-.485zm1.436-4.723l6.713-15.694c.346-.796.836-1.393 1.471-1.791a3.772 3.772 0 0 1 2.041-.597c.565 0 1.093.11 1.583.329.49.219.888.54 1.194.96.305.421.458.897.458 1.427v19.501c0 .45-.196.802-.588 1.056-.392.254-.856.381-1.393.381-.536 0-1.001-.127-1.393-.381-.393-.253-.588-.605-.588-1.056v-17.39l-7.025 16.594c-.242.588-.591 1.047-1.047 1.375-.456.329-.932.493-1.427.493v-5.207zM279.007 496.816c-.45-.323-.802-.784-1.055-1.384l-7.008-16.594v17.39c0 .45-.196.802-.588 1.056-.393.254-.856.381-1.393.381-.536 0-1.001-.127-1.393-.381-.392-.253-.588-.605-.588-1.056v-19.501c0-.796.32-1.447.96-1.955.64-.507 1.399-.761 2.275-.761.727 0 1.407.199 2.042.597.634.398 1.119.995 1.454 1.791l6.713 15.694v5.208c-.496 0-.969-.161-1.419-.485zm1.437-4.723l6.713-15.694c.346-.796.836-1.393 1.471-1.791a3.773 3.773 0 0 1 2.042-.597c.565 0 1.093.11 1.583.329.49.219.888.54 1.194.96.305.421.458.897.458 1.427v19.501c0 .45-.196.802-.588 1.056-.392.254-.856.381-1.393.381-.536 0-1.001-.127-1.393-.381-.393-.253-.588-.605-.588-1.056v-17.39l-7.025 16.594c-.242.588-.591 1.047-1.047 1.375-.456.329-.932.493-1.427.493v-5.207zM315.483 492.179h-11.438l-1.782 4.672c-.173.461-.433.805-.779 1.029a2.052 2.052 0 0 1-1.142.337c-.565 0-1.064-.175-1.497-.527s-.649-.788-.649-1.307c0-.23.046-.461.139-.692l8.011-20.055c.416-1.05.894-1.748 1.436-2.094.542-.346 1.2-.519 1.973-.519.519 0 .955.052 1.307.156.352.104.718.357 1.099.761s.721.969 1.021 1.696l8.011 20.055c.092.231.139.461.139.692 0 .519-.216.955-.649 1.307s-.932.527-1.497.527a2.05 2.05 0 0 1-1.142-.337c-.346-.225-.606-.568-.779-1.029l-1.782-4.672zm-5.728-14.967l-4.551 11.922h9.102l-4.551-11.922zM325.821 497.595c-.386-.323-.58-.773-.58-1.35v-20.383c0-.808.225-1.445.675-1.912a2.217 2.217 0 0 1 1.661-.701c.461 0 .94.115 1.437.346.496.231.899.565 1.211 1.004l11.939 17.078V475.1c0-.577.196-1.032.588-1.367a2.069 2.069 0 0 1 1.384-.502c.53 0 .989.165 1.375.493.386.329.58.787.58 1.375v20.366c0 .796-.233 1.431-.701 1.903a2.306 2.306 0 0 1-1.705.709c-.438 0-.914-.13-1.427-.389a3.246 3.246 0 0 1-1.22-1.03l-11.853-16.871v16.456c0 .565-.199 1.012-.597 1.341s-.862.493-1.393.493a2.06 2.06 0 0 1-1.374-.482zM352.676 497.448a1.99 1.99 0 0 1-.632-1.479v-20.626c0-.577.21-1.073.632-1.488a2.076 2.076 0 0 1 1.514-.623h5.953c4.406 0 7.743 1.073 10.01 3.218 2.267 2.146 3.4 5.243 3.4 9.292 0 3.969-1.145 7.014-3.435 9.136-2.29 2.123-5.511 3.184-9.664 3.184h-6.264a2.093 2.093 0 0 1-1.514-.614zm8.038-2.795c1.581 0 2.91-.182 3.988-.545s1.941-.928 2.587-1.696c.646-.767 1.11-1.696 1.393-2.786.283-1.09.424-2.414.424-3.971 0-3.253-.712-5.569-2.137-6.947-1.425-1.378-3.683-2.068-6.774-2.068h-3.858v18.013h4.377zM379.124 497.457c-.427-.415-.64-.899-.64-1.453v-20.678c0-.554.199-1.041.597-1.462a1.915 1.915 0 0 1 1.445-.632h12.666c.507 0 .905.173 1.194.519.288.346.433.744.433 1.194 0 .45-.145.848-.433 1.194-.289.346-.687.519-1.194.519h-10.417v7.025h9.776c.53 0 .937.165 1.22.493s.424.718.424 1.168c0 .438-.147.828-.441 1.168-.294.34-.695.511-1.202.511h-9.776v7.648h10.814c.507 0 .905.173 1.194.519.288.346.433.75.433 1.211 0 .438-.145.828-.433 1.168-.289.34-.687.51-1.194.51h-12.995c-.554.001-1.044-.207-1.471-.622zM399.153 497.561a1.72 1.72 0 0 1-.545-1.298c0-.427.144-.859.433-1.298l12.666-18.307h-11.265c-.508 0-.906-.176-1.194-.528-.289-.352-.433-.753-.433-1.203s.141-.845.424-1.185.684-.511 1.203-.511h14.569c.577 0 1.038.167 1.384.502s.519.755.519 1.263c0 .473-.15.923-.45 1.35l-12.718 18.324h11.438c.507 0 .905.17 1.194.51.288.34.433.735.433 1.186 0 .45-.145.848-.433 1.194-.289.346-.687.519-1.194.519h-14.431c-.703.001-1.237-.172-1.6-.518zM181.866 538.112c-.173-.138-.26-.346-.26-.623 0-.23.055-.479.165-.744.109-.265.251-.51.424-.735a2.5 2.5 0 0 1 .597-.562c.225-.15.441-.225.649-.225a.88.88 0 0 1 .467.139c2.123 1.465 4.447 2.197 6.974 2.197 1.603 0 2.904-.297 3.902-.891.998-.594 1.497-1.474 1.497-2.639 0-1.004-.268-1.771-.805-2.301-.536-.531-1.427-1.004-2.673-1.419l-5.502-1.834c-1.892-.634-3.276-1.445-4.153-2.431-.877-.986-1.315-2.328-1.315-4.023 0-2.122.865-3.801 2.595-5.035 1.73-1.234 3.939-1.852 6.627-1.852 1.672 0 3.273.249 4.802.744 1.528.496 2.708 1.096 3.539 1.8.161.127.279.28.354.458.075.179.112.372.112.58 0 .45-.155.859-.467 1.229s-.687.554-1.125.554c-.277 0-.56-.086-.848-.26-1.938-1.119-3.957-1.678-6.056-1.678-1.05 0-1.958.098-2.726.294-.767.196-1.404.548-1.912 1.056s-.762 1.159-.762 1.955c0 .773.205 1.399.614 1.877.41.479 1.064.868 1.964 1.168l5.468 1.748c.854.277 1.601.562 2.241.856.64.294 1.234.637 1.782 1.029.548.393.995.828 1.341 1.307s.617 1.035.813 1.669c.196.635.294 1.338.294 2.111 0 1.522-.398 2.841-1.194 3.954-.796 1.113-1.921 1.958-3.374 2.535-1.454.576-3.155.865-5.104.865-3.725 0-6.707-.957-8.945-2.873zM211.368 540.422a9.938 9.938 0 0 1-3.192-1.652c-.929-.727-1.658-1.673-2.189-2.838s-.796-2.486-.796-3.962v-14.241c0-.658.21-1.168.632-1.531.421-.363.931-.545 1.531-.545.577 0 1.079.182 1.505.545s.64.874.64 1.531v14.12c0 .969.165 1.828.493 2.578s.77 1.347 1.324 1.791c.554.444 1.165.778 1.834 1.003s1.373.337 2.111.337c.75 0 1.462-.112 2.137-.337s1.289-.56 1.843-1.003c.554-.444.995-1.041 1.324-1.791s.493-1.609.493-2.578v-14.12c0-.658.21-1.168.632-1.531.421-.363.931-.545 1.531-.545a2.22 2.22 0 0 1 1.497.545c.421.363.632.874.632 1.531v14.241c0 1.477-.269 2.797-.805 3.962-.537 1.165-1.269 2.111-2.198 2.838-.929.727-1.993 1.277-3.192 1.652s-2.498.563-3.893.563c-1.396 0-2.694-.188-3.894-.563zM231.951 540.034c-.421-.358-.632-.86-.632-1.506v-20.661c0-.577.21-1.073.632-1.488a2.076 2.076 0 0 1 1.514-.623h7.717c5.953 0 8.929 2.105 8.929 6.316 0 1.453-.464 2.688-1.393 3.703-.929 1.015-2.304 1.673-4.127 1.973v.069c2.918.623 4.557 2.543 4.915 5.762l.554 4.897c0 .023.002.049.008.078s.009.058.009.086v.078a1.859 1.859 0 0 1-.381 1.09c-.404.508-.958.761-1.661.761-.554 0-1.058-.16-1.514-.484-.456-.322-.718-.784-.788-1.384l-.484-4.637c-.092-.876-.216-1.575-.372-2.094s-.401-.966-.735-1.341c-.334-.375-.77-.634-1.306-.778-.537-.144-1.232-.216-2.085-.216h-5.138v8.894c0 .646-.214 1.148-.641 1.506-.427.357-.934.535-1.522.535a2.246 2.246 0 0 1-1.499-.536zm7.76-13.705c.704 0 1.295-.014 1.773-.043a9.192 9.192 0 0 0 1.609-.26c.594-.144 1.07-.343 1.428-.597.357-.254.66-.62.908-1.099s.372-1.058.372-1.739c0-.369-.035-.707-.104-1.012a3.872 3.872 0 0 0-.259-.788 1.886 1.886 0 0 0-.441-.588c-.19-.173-.372-.317-.545-.432s-.396-.213-.666-.294a7.897 7.897 0 0 0-.718-.182 5.966 5.966 0 0 0-.787-.086 29.328 29.328 0 0 0-.779-.035c-.202-.006-.47-.009-.805-.009h-5.087v7.164h4.101zM266.09 539.973a2.037 2.037 0 0 1-.649-1.514v-20.591c0-.657.213-1.168.64-1.531s.935-.545 1.523-.545 1.09.182 1.505.545c.415.363.623.874.623 1.531v19.328h10.295c.507 0 .908.173 1.203.519.294.346.441.744.441 1.194 0 .45-.144.845-.433 1.186-.289.34-.692.51-1.211.51H267.62a2.131 2.131 0 0 1-1.53-.632zM277.692 524.581v-.052-.061c0-.018.003-.035.009-.052a.165.165 0 0 0 .009-.043l1.367-7.648c.104-.623.525-.946 1.263-.969h2.422c.427 0 .64.219.64.658a.88.88 0 0 1-.052.312l-2.976 7.648c-.173.496-.496.744-.969.744h-1.28c-.289 0-.433-.179-.433-.537zM304.097 534.704h-11.438l-1.782 4.672c-.173.461-.433.805-.779 1.029a2.045 2.045 0 0 1-1.142.338 2.31 2.31 0 0 1-1.497-.527c-.433-.353-.649-.788-.649-1.307 0-.23.046-.461.139-.692l8.011-20.055c.416-1.05.894-1.748 1.436-2.094.542-.346 1.2-.519 1.973-.519.519 0 .955.052 1.307.156.352.104.718.357 1.099.761s.721.969 1.021 1.696l8.011 20.055c.092.231.139.461.139.692 0 .519-.216.955-.649 1.307a2.304 2.304 0 0 1-1.497.527c-.416 0-.796-.112-1.142-.338-.346-.225-.606-.568-.779-1.029l-1.782-4.672zm-5.728-14.968l-4.551 11.922h9.102l-4.551-11.922zM314.566 540.077c-.427-.364-.64-.874-.64-1.532v-20.643c0-.588.213-1.093.64-1.514.427-.421.94-.632 1.54-.632h7.527c2.884 0 5.09.577 6.619 1.73 1.528 1.154 2.293 3.011 2.293 5.572 0 2.595-.802 4.467-2.405 5.615-1.604 1.148-3.899 1.722-6.887 1.722h-5.035v8.15c0 .658-.211 1.168-.632 1.532-.421.363-.926.545-1.514.545-.578 0-1.08-.182-1.506-.545zm8.565-12.952c1.788 0 3.1-.291 3.937-.874.836-.583 1.254-1.646 1.254-3.192 0-1.523-.407-2.552-1.22-3.089-.813-.536-2.097-.805-3.85-.805h-5.035v7.959h4.914zM336.766 540.077c-.427-.364-.64-.874-.64-1.532v-20.643c0-.588.213-1.093.64-1.514.427-.421.94-.632 1.54-.632h7.527c2.884 0 5.09.577 6.619 1.73 1.528 1.154 2.293 3.011 2.293 5.572 0 2.595-.802 4.467-2.405 5.615-1.604 1.148-3.899 1.722-6.887 1.722h-5.035v8.15c0 .658-.211 1.168-.632 1.532-.421.363-.926.545-1.514.545a2.252 2.252 0 0 1-1.506-.545zm8.565-12.952c1.788 0 3.1-.291 3.937-.874.836-.583 1.254-1.646 1.254-3.192 0-1.523-.407-2.552-1.22-3.089-.813-.536-2.097-.805-3.85-.805h-5.035v7.959h4.914zM358.975 539.973a2.037 2.037 0 0 1-.649-1.514v-20.591c0-.657.213-1.168.64-1.531s.935-.545 1.523-.545 1.09.182 1.505.545c.415.363.623.874.623 1.531v19.328h10.295c.507 0 .908.173 1.203.519.294.346.441.744.441 1.194 0 .45-.144.845-.433 1.186-.289.34-.692.51-1.211.51h-12.407a2.13 2.13 0 0 1-1.53-.632zM378.649 540.024c-.421-.363-.632-.868-.632-1.514v-20.695c0-.657.213-1.168.64-1.531s.935-.545 1.523-.545a2.25 2.25 0 0 1 1.505.545c.427.363.64.874.64 1.531v20.695c0 .658-.213 1.166-.64 1.523-.427.357-.935.535-1.523.535s-1.092-.181-1.513-.544zM393.114 539.35c-1.771-1.09-3.138-2.607-4.101-4.551-.963-1.944-1.445-4.156-1.445-6.636 0-2.572.507-4.848 1.522-6.826s2.437-3.507 4.266-4.585c1.828-1.079 3.913-1.618 6.255-1.618 2.226 0 4.326.52 6.298 1.558.704.357 1.056.859 1.056 1.505a1.742 1.742 0 0 1-.234.866 1.986 1.986 0 0 1-.623.649 1.778 1.778 0 0 1-.407.182c-.15.046-.3.069-.45.069h-.139a.543.543 0 0 1-.138-.017 7.063 7.063 0 0 1-.139-.035.647.647 0 0 1-.138-.052c-.023-.012-.266-.124-.727-.337s-.831-.369-1.107-.467-.707-.205-1.289-.32a9.233 9.233 0 0 0-1.791-.173c-2.48 0-4.381.854-5.702 2.561s-1.981 4.026-1.981 6.956c0 2.954.669 5.272 2.007 6.956 1.338 1.685 3.288 2.526 5.849 2.526.681 0 1.353-.083 2.016-.251.664-.167 1.186-.337 1.566-.51.381-.173.871-.421 1.471-.744.115-.058.233-.104.354-.138.121-.035.239-.052.355-.052.426 0 .79.173 1.09.519a1.747 1.747 0 0 1 .416 1.514c-.023.11-.058.216-.104.32a2.112 2.112 0 0 1-.173.312 1.674 1.674 0 0 1-.251.294 2.343 2.343 0 0 1-.337.26c-2.007 1.269-4.395 1.903-7.164 1.903-2.283-.003-4.31-.548-6.081-1.638zM427.349 534.704h-11.438l-1.782 4.672c-.173.461-.433.805-.779 1.029a2.045 2.045 0 0 1-1.142.338 2.31 2.31 0 0 1-1.497-.527c-.433-.353-.649-.788-.649-1.307 0-.23.046-.461.139-.692l8.011-20.055c.416-1.05.894-1.748 1.436-2.094.542-.346 1.2-.519 1.973-.519.519 0 .955.052 1.307.156.352.104.718.357 1.099.761s.721.969 1.021 1.696l8.011 20.055c.092.231.139.461.139.692 0 .519-.216.955-.649 1.307a2.304 2.304 0 0 1-1.497.527c-.416 0-.796-.112-1.142-.338-.346-.225-.606-.568-.779-1.029l-1.782-4.672zm-5.728-14.968l-4.551 11.922h9.102l-4.551-11.922zM442.974 540.067c-.427-.368-.641-.882-.641-1.539v-19.345h-6.039c-.531 0-.946-.173-1.246-.519a1.77 1.77 0 0 1-.45-1.194c0-.45.15-.848.45-1.194s.715-.519 1.246-.519h16.369c.52 0 .926.173 1.22.519.294.346.441.744.441 1.194 0 .45-.147.848-.441 1.194-.294.346-.701.519-1.22.519h-6.021v19.345c0 .657-.213 1.171-.64 1.539a2.25 2.25 0 0 1-1.522.555c-.578 0-1.08-.185-1.506-.555zM458.694 540.024c-.421-.363-.632-.868-.632-1.514v-20.695c0-.657.213-1.168.64-1.531s.935-.545 1.523-.545a2.25 2.25 0 0 1 1.505.545c.427.363.64.874.64 1.531v20.695c0 .658-.213 1.166-.64 1.523-.427.357-.935.535-1.523.535s-1.092-.181-1.513-.544zM470.702 537.463c-2.117-2.347-3.175-5.482-3.175-9.404 0-2.584.464-4.845 1.393-6.783s2.298-3.446 4.11-4.525c1.811-1.079 3.968-1.618 6.471-1.618 2.515 0 4.678.54 6.489 1.618s3.178 2.584 4.101 4.516 1.384 4.196 1.384 6.792c0 2.584-.461 4.842-1.384 6.774-.923 1.932-2.29 3.44-4.101 4.525-1.811 1.083-3.974 1.626-6.489 1.626-3.749.001-6.682-1.173-8.799-3.521zm14.336-2.457c1.269-1.701 1.903-4.017 1.903-6.947 0-2.918-.631-5.231-1.895-6.938s-3.112-2.561-5.546-2.561c-2.422 0-4.265.854-5.528 2.561s-1.895 4.02-1.895 6.938c0 2.93.631 5.246 1.895 6.947 1.263 1.702 3.106 2.552 5.528 2.552s4.269-.85 5.538-2.552zM496.899 540.12c-.386-.323-.58-.773-.58-1.35v-20.383c0-.808.225-1.445.675-1.912a2.217 2.217 0 0 1 1.661-.701c.461 0 .94.115 1.437.346.496.231.899.565 1.211 1.004l11.939 17.078v-16.577c0-.577.195-1.032.588-1.367s.854-.502 1.385-.502c.53 0 .988.165 1.375.493s.58.787.58 1.375v20.366c0 .796-.233 1.431-.701 1.903a2.304 2.304 0 0 1-1.704.709c-.438 0-.914-.13-1.428-.389a3.255 3.255 0 0 1-1.22-1.03l-11.853-16.871v16.456c0 .565-.199 1.012-.597 1.341a2.12 2.12 0 0 1-1.393.493 2.07 2.07 0 0 1-1.375-.482z"/></g><g fill="#525e77"><path d="M406.89 29.511a2.037 2.037 0 0 1-.649-1.514V7.406c0-.657.213-1.168.64-1.531s.935-.545 1.523-.545 1.09.182 1.505.545c.415.363.623.874.623 1.531v19.328h10.295c.507 0 .908.173 1.203.519.294.346.441.744.441 1.194 0 .45-.144.845-.433 1.186s-.692.51-1.211.51H408.42a2.123 2.123 0 0 1-1.53-.632zM440.969 24.242h-11.438l-1.782 4.672c-.173.461-.433.805-.779 1.029a2.052 2.052 0 0 1-1.142.337c-.565 0-1.064-.175-1.497-.527s-.649-.788-.649-1.307c0-.23.046-.461.139-.692L431.833 7.7c.416-1.05.894-1.748 1.436-2.094.542-.346 1.2-.519 1.973-.519.519 0 .955.052 1.307.156.352.104.718.357 1.099.761s.721.969 1.021 1.696l8.011 20.055c.092.231.139.461.139.692 0 .519-.216.955-.649 1.307s-.932.527-1.497.527a2.05 2.05 0 0 1-1.142-.337c-.346-.225-.606-.568-.779-1.029l-1.783-4.673zm-5.727-14.967l-4.551 11.922h9.102l-4.551-11.922zM465.272 28.888c-1.771-1.09-3.138-2.607-4.101-4.551-.963-1.944-1.445-4.156-1.445-6.636 0-2.572.507-4.848 1.522-6.826s2.437-3.507 4.266-4.585c1.828-1.079 3.913-1.618 6.255-1.618 2.226 0 4.326.52 6.298 1.558.704.357 1.056.859 1.056 1.505a1.742 1.742 0 0 1-.234.866 1.986 1.986 0 0 1-.623.649 1.778 1.778 0 0 1-.407.182c-.15.046-.3.069-.45.069h-.139a.543.543 0 0 1-.138-.017 7.063 7.063 0 0 1-.139-.035.647.647 0 0 1-.138-.052c-.023-.012-.266-.124-.727-.337s-.831-.369-1.107-.467-.707-.205-1.289-.32a9.233 9.233 0 0 0-1.791-.173c-2.48 0-4.381.854-5.702 2.561s-1.981 4.026-1.981 6.956c0 2.954.669 5.272 2.007 6.956 1.338 1.685 3.288 2.526 5.849 2.526.681 0 1.353-.083 2.016-.251.664-.167 1.186-.337 1.566-.51.381-.173.871-.421 1.471-.744.115-.058.233-.104.354-.138.121-.035.239-.052.355-.052.426 0 .79.173 1.09.519a1.747 1.747 0 0 1 .416 1.514c-.023.11-.058.216-.104.32a2.112 2.112 0 0 1-.173.312 1.674 1.674 0 0 1-.251.294 2.343 2.343 0 0 1-.337.26c-2.007 1.269-4.395 1.903-7.164 1.903-2.283-.003-4.31-.548-6.081-1.638zM486.243 27.002c-2.117-2.347-3.175-5.482-3.175-9.404 0-2.584.464-4.845 1.393-6.783s2.298-3.446 4.11-4.525c1.811-1.079 3.968-1.618 6.471-1.618 2.515 0 4.678.54 6.489 1.618s3.178 2.584 4.101 4.516 1.384 4.196 1.384 6.792c0 2.584-.461 4.842-1.384 6.774-.923 1.932-2.29 3.44-4.101 4.525-1.811 1.084-3.974 1.626-6.489 1.626-3.749 0-6.682-1.173-8.799-3.521zm14.336-2.457c1.269-1.701 1.903-4.017 1.903-6.947 0-2.918-.631-5.231-1.895-6.938s-3.112-2.561-5.546-2.561c-2.422 0-4.265.854-5.528 2.561s-1.895 4.02-1.895 6.938c0 2.93.631 5.246 1.895 6.947 1.263 1.702 3.106 2.552 5.528 2.552s4.269-.85 5.538-2.552zM523.973 28.879c-.449-.323-.802-.784-1.055-1.384l-7.008-16.594v17.39c0 .45-.196.802-.589 1.056-.393.254-.856.381-1.393.381s-1.001-.127-1.394-.381c-.392-.253-.588-.605-.588-1.056V8.79c0-.796.32-1.447.96-1.955.641-.507 1.399-.761 2.275-.761.728 0 1.407.199 2.042.597s1.119.995 1.454 1.791l6.713 15.694v5.208c-.494 0-.967-.161-1.417-.485zm1.436-4.723l6.714-15.694c.346-.796.836-1.393 1.471-1.791a3.773 3.773 0 0 1 2.042-.597c.564 0 1.093.11 1.583.329.49.219.889.54 1.194.96.305.421.458.897.458 1.427v19.501c0 .45-.196.802-.588 1.056-.393.254-.856.381-1.394.381-.536 0-1.001-.127-1.393-.381-.393-.253-.588-.605-.588-1.056v-17.39l-7.025 16.594c-.242.588-.592 1.047-1.047 1.375-.456.329-.932.493-1.428.493v-5.207zM557.178 28.879c-.449-.323-.802-.784-1.055-1.384l-7.008-16.594v17.39c0 .45-.196.802-.589 1.056-.393.254-.856.381-1.393.381s-1.001-.127-1.394-.381c-.392-.253-.588-.605-.588-1.056V8.79c0-.796.32-1.447.96-1.955.641-.507 1.399-.761 2.275-.761.728 0 1.407.199 2.042.597s1.119.995 1.454 1.791l6.713 15.694v5.208c-.494 0-.967-.161-1.417-.485zm1.436-4.723l6.714-15.694c.346-.796.836-1.393 1.471-1.791a3.773 3.773 0 0 1 2.042-.597c.564 0 1.093.11 1.583.329.49.219.889.54 1.194.96.305.421.458.897.458 1.427v19.501c0 .45-.196.802-.588 1.056-.393.254-.856.381-1.394.381-.536 0-1.001-.127-1.393-.381-.393-.253-.588-.605-.588-1.056v-17.39l-7.025 16.594c-.242.588-.592 1.047-1.047 1.375-.456.329-.932.493-1.428.493v-5.207zM593.654 24.242h-11.438l-1.782 4.672c-.173.461-.433.805-.778 1.029a2.053 2.053 0 0 1-1.143.337c-.564 0-1.063-.175-1.496-.527s-.649-.788-.649-1.307c0-.23.046-.461.139-.692L584.518 7.7c.415-1.05.894-1.748 1.436-2.094.543-.346 1.2-.519 1.973-.519.52 0 .955.052 1.307.156.352.104.718.357 1.099.761s.721.969 1.021 1.696l8.011 20.055c.093.231.139.461.139.692 0 .519-.216.955-.648 1.307s-.932.527-1.497.527c-.415 0-.796-.112-1.142-.337-.347-.225-.606-.568-.779-1.029l-1.784-4.673zm-5.728-14.967l-4.551 11.922h9.102l-4.551-11.922zM603.992 29.658c-.387-.323-.58-.773-.58-1.35V7.925c0-.808.226-1.445.675-1.912a2.217 2.217 0 0 1 1.661-.701c.462 0 .94.115 1.437.346.496.231.899.565 1.211 1.004l11.939 17.078V7.164c0-.577.196-1.032.589-1.367.392-.334.854-.502 1.384-.502s.989.165 1.376.493c.386.329.579.787.579 1.375V27.53c0 .796-.233 1.431-.7 1.903a2.308 2.308 0 0 1-1.705.709c-.438 0-.914-.13-1.427-.389a3.246 3.246 0 0 1-1.22-1.03l-11.854-16.871v16.456c0 .565-.199 1.012-.597 1.341a2.12 2.12 0 0 1-1.393.493 2.072 2.072 0 0 1-1.375-.484zM630.848 29.511a1.987 1.987 0 0 1-.632-1.479V7.406c0-.577.21-1.073.632-1.488a2.076 2.076 0 0 1 1.514-.623h5.952c4.406 0 7.743 1.073 10.01 3.218 2.267 2.146 3.4 5.243 3.4 9.292 0 3.969-1.145 7.014-3.435 9.136-2.29 2.123-5.511 3.184-9.664 3.184h-6.264a2.095 2.095 0 0 1-1.513-.614zm8.037-2.795c1.58 0 2.909-.182 3.988-.545 1.078-.363 1.94-.928 2.587-1.696.646-.767 1.11-1.696 1.393-2.786.283-1.09.424-2.414.424-3.971 0-3.253-.712-5.569-2.137-6.947s-3.683-2.068-6.774-2.068h-3.858v18.013h4.377zM657.295 29.52c-.427-.415-.64-.899-.64-1.453V7.389c0-.554.199-1.041.597-1.462.398-.421.88-.632 1.445-.632h12.666c.507 0 .905.173 1.193.519s.433.744.433 1.194c0 .45-.145.848-.433 1.194-.288.346-.687.519-1.193.519h-10.417v7.025h9.776c.53 0 .938.165 1.22.493.283.329.424.718.424 1.168 0 .438-.146.828-.441 1.168-.294.34-.694.511-1.202.511h-9.776v7.648h10.814c.508 0 .905.173 1.194.519.288.346.433.75.433 1.211 0 .438-.145.828-.433 1.168-.289.34-.687.51-1.194.51h-12.995c-.554.001-1.044-.207-1.471-.622zM272.383 66.767h-11.438l-1.782 4.672c-.173.462-.433.805-.779 1.029a2.045 2.045 0 0 1-1.142.338 2.305 2.305 0 0 1-1.497-.528c-.433-.352-.649-.787-.649-1.306 0-.231.046-.462.139-.692l8.011-20.055c.416-1.05.894-1.748 1.436-2.094.542-.346 1.2-.519 1.973-.519.519 0 .955.052 1.307.156.352.104.718.357 1.099.761s.721.969 1.021 1.696l8.011 20.055c.092.23.139.461.139.692 0 .519-.216.954-.649 1.306a2.3 2.3 0 0 1-1.497.528c-.416 0-.796-.112-1.142-.338-.346-.225-.606-.567-.779-1.029l-1.782-4.672zm-5.728-14.968l-4.551 11.921h9.102l-4.551-11.921zM282.842 72.096c-.421-.357-.632-.859-.632-1.505V49.93c0-.577.21-1.073.632-1.488a2.076 2.076 0 0 1 1.514-.623h7.717c5.953 0 8.929 2.105 8.929 6.316 0 1.453-.464 2.688-1.393 3.703-.929 1.016-2.304 1.673-4.127 1.973v.069c2.918.623 4.557 2.544 4.915 5.762l.554 4.897c0 .022.002.049.008.077a.436.436 0 0 1 .009.087v.078a1.864 1.864 0 0 1-.381 1.09c-.404.508-.958.762-1.661.762a2.56 2.56 0 0 1-1.514-.485c-.456-.322-.718-.784-.788-1.384l-.484-4.638c-.092-.876-.216-1.574-.372-2.094-.156-.519-.401-.966-.735-1.341s-.77-.634-1.306-.778c-.537-.145-1.232-.217-2.085-.217h-5.138v8.895c0 .646-.214 1.147-.641 1.505a2.293 2.293 0 0 1-1.522.537 2.238 2.238 0 0 1-1.499-.537zm7.761-13.704c.704 0 1.295-.015 1.773-.043.479-.029 1.015-.115 1.609-.26s1.07-.343 1.428-.597c.357-.254.66-.62.908-1.1.248-.478.372-1.058.372-1.738 0-.369-.035-.707-.104-1.012a3.872 3.872 0 0 0-.259-.788 1.886 1.886 0 0 0-.441-.588c-.19-.173-.372-.317-.545-.432s-.396-.213-.666-.294a7.897 7.897 0 0 0-.718-.182 5.966 5.966 0 0 0-.787-.086 29.328 29.328 0 0 0-.779-.035c-.202-.006-.47-.009-.805-.009h-5.087v7.164h4.101zM306.998 72.096c-.421-.357-.632-.859-.632-1.505V49.93c0-.577.21-1.073.632-1.488a2.076 2.076 0 0 1 1.514-.623h7.717c5.953 0 8.929 2.105 8.929 6.316 0 1.453-.464 2.688-1.393 3.703-.929 1.016-2.304 1.673-4.127 1.973v.069c2.918.623 4.557 2.544 4.915 5.762l.554 4.897c0 .022.002.049.008.077a.436.436 0 0 1 .009.087v.078a1.864 1.864 0 0 1-.381 1.09c-.404.508-.958.762-1.661.762a2.56 2.56 0 0 1-1.514-.485c-.456-.322-.718-.784-.788-1.384l-.484-4.638c-.092-.876-.216-1.574-.372-2.094-.156-.519-.401-.966-.735-1.341s-.77-.634-1.306-.778c-.537-.145-1.232-.217-2.085-.217h-5.138v8.895c0 .646-.214 1.147-.641 1.505a2.293 2.293 0 0 1-1.522.537 2.238 2.238 0 0 1-1.499-.537zm7.76-13.704c.704 0 1.295-.015 1.773-.043.479-.029 1.015-.115 1.609-.26s1.07-.343 1.428-.597c.357-.254.66-.62.908-1.1.248-.478.372-1.058.372-1.738 0-.369-.035-.707-.104-1.012a3.872 3.872 0 0 0-.259-.788 1.886 1.886 0 0 0-.441-.588c-.19-.173-.372-.317-.545-.432s-.396-.213-.666-.294a7.897 7.897 0 0 0-.718-.182 5.966 5.966 0 0 0-.787-.086 29.328 29.328 0 0 0-.779-.035c-.202-.006-.47-.009-.805-.009h-5.087v7.164h4.101zM331.43 72.087c-.421-.363-.632-.867-.632-1.514V49.878c0-.657.213-1.168.64-1.531s.935-.545 1.523-.545a2.25 2.25 0 0 1 1.505.545c.427.363.64.874.64 1.531v20.695c0 .657-.213 1.165-.64 1.522-.427.358-.935.537-1.523.537s-1.092-.181-1.513-.545zM347.921 72.243c-.571-.444-1.053-1.237-1.445-2.379l-6.853-19.674a4.395 4.395 0 0 1-.086-.337 1.566 1.566 0 0 1 .294-1.289c.219-.288.493-.507.822-.658a2.47 2.47 0 0 1 1.03-.225c.438 0 .836.115 1.194.346.357.231.611.577.761 1.039l6.506 19.275 6.489-19.275a2.017 2.017 0 0 1 .588-.909 1.76 1.76 0 0 1 .416-.268 2.229 2.229 0 0 1 .952-.208c.577 0 1.087.173 1.531.519.444.346.666.79.666 1.332 0 .219-.041.439-.121.658l-6.852 19.674c-.392 1.142-.874 1.935-1.445 2.379-.571.443-1.313.666-2.224.666s-1.653-.222-2.223-.666zM365.388 72.044c-.427-.415-.64-.899-.64-1.453V49.913c0-.554.199-1.041.597-1.462a1.915 1.915 0 0 1 1.445-.632h12.666c.507 0 .905.173 1.194.519.288.346.433.744.433 1.194 0 .45-.145.848-.433 1.194-.289.346-.687.519-1.194.519h-10.417v7.025h9.776c.53 0 .937.164 1.22.493s.424.718.424 1.168c0 .438-.147.828-.441 1.168-.294.341-.695.511-1.202.511h-9.776v7.647h10.814c.507 0 .905.174 1.194.52.288.346.433.75.433 1.211 0 .438-.145.828-.433 1.168-.289.341-.687.511-1.194.511h-12.995c-.554 0-1.044-.208-1.471-.623zM411.709 66.767h-11.438l-1.782 4.672c-.173.462-.433.805-.779 1.029a2.045 2.045 0 0 1-1.142.338 2.305 2.305 0 0 1-1.497-.528c-.433-.352-.649-.787-.649-1.306 0-.231.046-.462.139-.692l8.011-20.055c.416-1.05.894-1.748 1.436-2.094.542-.346 1.2-.519 1.973-.519.519 0 .955.052 1.307.156.352.104.718.357 1.099.761s.721.969 1.021 1.696l8.011 20.055c.092.23.139.461.139.692 0 .519-.216.954-.649 1.306a2.3 2.3 0 0 1-1.497.528c-.416 0-.796-.112-1.142-.338-.346-.225-.606-.567-.779-1.029l-1.782-4.672zm-6.644-22.079l-5.381-4.309c-.323-.253-.484-.565-.484-.935 0-.45.202-.862.605-1.237s.842-.563 1.315-.563c.438 0 .877.277 1.315.831l4.118 5.053c.184.254.277.484.277.692 0 .242-.078.45-.234.623s-.354.259-.597.259c-.323.001-.635-.138-.934-.414zm.917 7.111l-4.551 11.921h9.102l-4.551-11.921zM431.997 72.035a2.037 2.037 0 0 1-.649-1.514V49.93c0-.657.213-1.168.64-1.531s.935-.545 1.523-.545 1.09.182 1.505.545c.415.363.623.874.623 1.531v19.328h10.295c.507 0 .908.174 1.203.52.294.346.441.744.441 1.194 0 .449-.144.845-.433 1.185-.289.341-.692.511-1.211.511h-12.407a2.124 2.124 0 0 1-1.53-.633zM466.076 66.767h-11.438l-1.782 4.672c-.173.462-.433.805-.779 1.029a2.045 2.045 0 0 1-1.142.338 2.305 2.305 0 0 1-1.497-.528c-.433-.352-.649-.787-.649-1.306 0-.231.046-.462.139-.692l8.011-20.055c.416-1.05.894-1.748 1.436-2.094.542-.346 1.2-.519 1.973-.519.519 0 .955.052 1.307.156.352.104.718.357 1.099.761s.721.969 1.021 1.696l8.011 20.055c.092.23.139.461.139.692 0 .519-.216.954-.649 1.306a2.3 2.3 0 0 1-1.497.528c-.416 0-.796-.112-1.142-.338-.346-.225-.606-.567-.779-1.029l-1.782-4.672zm-5.728-14.968l-4.551 11.921h9.102l-4.551-11.921zM490.379 71.412c-1.771-1.09-3.138-2.606-4.101-4.551-.963-1.943-1.445-4.155-1.445-6.636 0-2.572.507-4.847 1.522-6.826s2.437-3.507 4.266-4.585c1.828-1.079 3.913-1.618 6.255-1.618 2.226 0 4.326.52 6.298 1.558.704.357 1.056.859 1.056 1.505a1.742 1.742 0 0 1-.234.866 1.986 1.986 0 0 1-.623.649 1.778 1.778 0 0 1-.407.182c-.15.046-.3.069-.45.069h-.139a.543.543 0 0 1-.138-.017 7.063 7.063 0 0 1-.139-.035.647.647 0 0 1-.138-.052c-.023-.012-.266-.124-.727-.337s-.831-.369-1.107-.467-.707-.205-1.289-.32a9.233 9.233 0 0 0-1.791-.173c-2.48 0-4.381.854-5.702 2.561s-1.981 4.025-1.981 6.956c0 2.953.669 5.271 2.007 6.956 1.338 1.684 3.288 2.526 5.849 2.526.681 0 1.353-.084 2.016-.251.664-.167 1.186-.338 1.566-.511.381-.173.871-.421 1.471-.744.115-.058.233-.104.354-.139a1.31 1.31 0 0 1 .355-.052c.426 0 .79.173 1.09.52a1.747 1.747 0 0 1 .416 1.514 1.595 1.595 0 0 1-.104.32 2.164 2.164 0 0 1-.173.312 1.674 1.674 0 0 1-.251.294 2.273 2.273 0 0 1-.337.26c-2.007 1.269-4.395 1.903-7.164 1.903-2.283-.001-4.31-.546-6.081-1.637zM524.613 66.767h-11.438l-1.782 4.672c-.173.462-.433.805-.779 1.029a2.045 2.045 0 0 1-1.142.338 2.305 2.305 0 0 1-1.497-.528c-.433-.352-.649-.787-.649-1.306 0-.231.046-.462.139-.692l8.011-20.055c.416-1.05.895-1.748 1.437-2.094s1.199-.519 1.973-.519c.519 0 .954.052 1.307.156.352.104.718.357 1.099.761s.721.969 1.021 1.696l8.012 20.055c.092.23.139.461.139.692 0 .519-.217.954-.649 1.306a2.299 2.299 0 0 1-1.496.528c-.416 0-.797-.112-1.143-.338-.346-.225-.605-.567-.778-1.029l-1.785-4.672zm-5.727-14.968l-4.551 11.921h9.102l-4.551-11.921zM535.029 72.122c-.415-.363-.623-.874-.623-1.531V49.948c0-.6.208-1.104.623-1.514a2.026 2.026 0 0 1 1.471-.614h11.991c.52 0 .92.173 1.203.519.282.346.424.744.424 1.194 0 .45-.142.848-.424 1.194-.283.346-.684.519-1.203.519h-9.776v6.956h9.31c.508 0 .905.165 1.193.493.289.329.433.719.433 1.168 0 .45-.141.84-.424 1.168-.282.329-.684.493-1.202.493h-9.31v9.067c0 .657-.216 1.168-.648 1.531s-.943.545-1.531.545c-.59 0-1.091-.182-1.507-.545zM555.291 72.044c-.427-.415-.64-.899-.64-1.453V49.913c0-.554.199-1.041.597-1.462.398-.421.88-.632 1.445-.632h12.666c.507 0 .905.173 1.193.519s.433.744.433 1.194c0 .45-.145.848-.433 1.194-.288.346-.687.519-1.193.519h-10.417v7.025h9.776c.53 0 .938.164 1.22.493.283.329.424.718.424 1.168 0 .438-.146.828-.441 1.168-.294.341-.694.511-1.202.511h-9.776v7.647h10.814c.508 0 .905.174 1.194.52.288.346.433.75.433 1.211 0 .438-.145.828-.433 1.168-.289.341-.687.511-1.194.511h-12.995c-.554 0-1.044-.208-1.471-.623zm6.844-27.287a.83.83 0 0 1-.251-.623c0-.242.093-.479.277-.709l4.17-5.122c.403-.519.824-.779 1.263-.779.462 0 .892.185 1.289.554.398.369.598.785.598 1.246 0 .393-.185.739-.554 1.039l-5.382 4.309c-.276.219-.542.329-.796.329a.862.862 0 0 1-.614-.244zM581.904 72.131c-.427-.369-.641-.883-.641-1.54V51.246h-6.038c-.531 0-.946-.173-1.246-.519a1.77 1.77 0 0 1-.45-1.194c0-.45.15-.848.45-1.194s.715-.519 1.246-.519h16.368c.52 0 .926.173 1.221.519.294.346.44.744.44 1.194 0 .45-.146.848-.44 1.194-.295.346-.701.519-1.221.519h-6.021v19.345c0 .657-.213 1.171-.64 1.54s-.935.554-1.522.554a2.23 2.23 0 0 1-1.506-.554zM597.356 72.044c-.427-.415-.64-.899-.64-1.453V49.913c0-.554.199-1.041.597-1.462.398-.421.88-.632 1.445-.632h12.666c.507 0 .905.173 1.193.519s.433.744.433 1.194c0 .45-.145.848-.433 1.194-.288.346-.687.519-1.193.519h-10.417v7.025h9.776c.53 0 .938.164 1.22.493.283.329.424.718.424 1.168 0 .438-.146.828-.441 1.168-.294.341-.694.511-1.202.511h-9.776v7.647h10.814c.508 0 .905.174 1.194.52.288.346.433.75.433 1.211 0 .438-.145.828-.433 1.168-.289.341-.687.511-1.194.511h-12.995c-.554 0-1.045-.208-1.471-.623zm6.843-27.287a.83.83 0 0 1-.251-.623c0-.242.093-.479.277-.709l4.17-5.122c.403-.519.824-.779 1.263-.779.462 0 .892.185 1.289.554.398.369.598.785.598 1.246 0 .393-.185.739-.554 1.039l-5.382 4.309c-.276.219-.542.329-.796.329a.862.862 0 0 1-.614-.244zM618.804 72.096c-.422-.357-.632-.859-.632-1.505V49.93c0-.577.21-1.073.632-1.488a2.076 2.076 0 0 1 1.514-.623h7.717c5.953 0 8.929 2.105 8.929 6.316 0 1.453-.464 2.688-1.393 3.703-.929 1.016-2.305 1.673-4.127 1.973v.069c2.918.623 4.557 2.544 4.914 5.762l.554 4.897a.38.38 0 0 0 .009.077.436.436 0 0 1 .009.087v.078a1.87 1.87 0 0 1-.381 1.09c-.404.508-.958.762-1.661.762a2.557 2.557 0 0 1-1.514-.485c-.456-.322-.719-.784-.788-1.384l-.484-4.638c-.092-.876-.216-1.574-.372-2.094a3.474 3.474 0 0 0-.735-1.341c-.334-.375-.77-.634-1.306-.778-.537-.145-1.232-.217-2.086-.217h-5.139v8.895c0 .646-.214 1.147-.641 1.505a2.293 2.293 0 0 1-1.522.537 2.235 2.235 0 0 1-1.497-.537zm7.76-13.704c.704 0 1.295-.015 1.773-.043a9.177 9.177 0 0 0 1.609-.26c.595-.145 1.07-.343 1.428-.597s.66-.62.908-1.1c.248-.478.372-1.058.372-1.738 0-.369-.034-.707-.104-1.012s-.156-.568-.26-.788a1.886 1.886 0 0 0-.441-.588c-.19-.173-.372-.317-.545-.432s-.396-.213-.666-.294a7.897 7.897 0 0 0-.718-.182 5.986 5.986 0 0 0-.787-.086c-.317-.018-.577-.029-.779-.035s-.47-.009-.805-.009h-5.087v7.164h4.102zM643.237 72.087c-.422-.363-.632-.867-.632-1.514V49.878c0-.657.213-1.168.64-1.531s.935-.545 1.523-.545c.576 0 1.078.182 1.505.545s.641.874.641 1.531v20.695c0 .657-.214 1.165-.641 1.522a2.294 2.294 0 0 1-1.522.537c-.59.001-1.094-.181-1.514-.545zM668.507 66.767H657.07l-1.782 4.672c-.173.462-.433.805-.778 1.029a2.046 2.046 0 0 1-1.143.338 2.304 2.304 0 0 1-1.496-.528c-.433-.352-.649-.787-.649-1.306 0-.231.046-.462.139-.692l8.012-20.055c.415-1.05.894-1.748 1.436-2.094.543-.346 1.2-.519 1.973-.519.52 0 .955.052 1.307.156.352.104.718.357 1.099.761s.721.969 1.021 1.696l8.011 20.055c.093.23.139.461.139.692 0 .519-.216.954-.648 1.306a2.3 2.3 0 0 1-1.497.528c-.415 0-.796-.112-1.142-.338-.347-.225-.606-.567-.779-1.029l-1.786-4.672zm-5.728-14.968l-4.551 11.921h9.102l-4.551-11.921z"/></g><g fill="#525e77"><path d="M845.07 505.663c-.427-.363-.641-.874-.641-1.531v-20.643c0-.588.214-1.093.641-1.514a2.113 2.113 0 0 1 1.54-.632h7.526c2.884 0 5.09.577 6.619 1.73 1.528 1.154 2.293 3.011 2.293 5.572 0 2.595-.803 4.467-2.405 5.615-1.604 1.148-3.899 1.722-6.887 1.722h-5.035v8.15c0 .658-.211 1.168-.632 1.531-.422.363-.926.545-1.515.545a2.247 2.247 0 0 1-1.504-.545zm8.565-12.952c1.787 0 3.1-.291 3.937-.874.836-.583 1.254-1.646 1.254-3.192 0-1.523-.406-2.552-1.22-3.089-.813-.536-2.097-.805-3.85-.805h-5.035v7.959h4.914zM867.261 505.62c-.421-.357-.632-.859-.632-1.505v-20.661c0-.577.211-1.073.632-1.488a2.077 2.077 0 0 1 1.514-.623h7.718c5.952 0 8.929 2.105 8.929 6.316 0 1.453-.465 2.688-1.394 3.703-.929 1.015-2.304 1.673-4.127 1.973v.069c2.919.623 4.557 2.543 4.915 5.762l.554 4.897c0 .023.002.049.008.078s.009.058.009.086v.078a1.859 1.859 0 0 1-.381 1.09c-.403.508-.957.761-1.661.761a2.559 2.559 0 0 1-1.514-.484c-.456-.323-.718-.784-.787-1.384l-.484-4.637c-.093-.876-.217-1.575-.372-2.094a3.5 3.5 0 0 0-.735-1.341c-.335-.375-.771-.634-1.307-.778s-1.231-.216-2.085-.216H870.922v8.894c0 .646-.214 1.148-.641 1.505s-.935.536-1.522.536a2.247 2.247 0 0 1-1.498-.537zm7.761-13.705c.703 0 1.295-.014 1.773-.043s1.015-.115 1.609-.26c.594-.144 1.069-.343 1.428-.597.357-.254.66-.62.908-1.099s.372-1.058.372-1.739c0-.369-.035-.707-.104-1.012a3.753 3.753 0 0 0-.259-.788 1.886 1.886 0 0 0-.441-.588c-.19-.173-.372-.317-.545-.432s-.396-.213-.666-.294a7.828 7.828 0 0 0-.719-.182 5.946 5.946 0 0 0-.787-.086 29.468 29.468 0 0 0-.778-.035 28.465 28.465 0 0 0-.805-.009h-5.087v7.164h4.101zM891.425 505.567c-.427-.415-.641-.899-.641-1.453v-20.678c0-.554.199-1.041.598-1.462a1.913 1.913 0 0 1 1.444-.632h12.666c.508 0 .905.173 1.194.519.288.346.433.744.433 1.194 0 .45-.145.848-.433 1.194-.289.346-.687.519-1.194.519h-10.416v7.025h9.776c.53 0 .937.165 1.22.493.282.329.424.718.424 1.168 0 .438-.147.828-.441 1.168-.294.34-.695.511-1.202.511h-9.776v7.648h10.814c.507 0 .905.173 1.193.519s.433.75.433 1.211c0 .438-.145.828-.433 1.168s-.687.51-1.193.51h-12.995c-.554.001-1.044-.206-1.471-.622zm6.844-27.287a.826.826 0 0 1-.251-.623c0-.242.092-.479.276-.709l4.17-5.122c.404-.519.825-.779 1.264-.779.461 0 .891.185 1.289.554.397.369.597.785.597 1.246 0 .393-.185.739-.554 1.039l-5.381 4.309c-.277.219-.543.329-.796.329a.858.858 0 0 1-.614-.244zM912.881 505.663c-.427-.363-.641-.874-.641-1.531v-20.643c0-.588.214-1.093.641-1.514a2.113 2.113 0 0 1 1.54-.632h7.526c2.884 0 5.09.577 6.619 1.73 1.528 1.154 2.293 3.011 2.293 5.572 0 2.595-.803 4.467-2.405 5.615-1.604 1.148-3.899 1.722-6.887 1.722h-5.035v8.15c0 .658-.211 1.168-.632 1.531-.422.363-.926.545-1.515.545a2.251 2.251 0 0 1-1.504-.545zm8.565-12.952c1.787 0 3.1-.291 3.937-.874.836-.583 1.254-1.646 1.254-3.192 0-1.523-.406-2.552-1.22-3.089-.813-.536-2.097-.805-3.85-.805h-5.035v7.959h4.914zM949.754 500.29h-11.438l-1.782 4.672c-.173.461-.433.805-.778 1.029a2.053 2.053 0 0 1-1.143.337c-.564 0-1.063-.175-1.496-.527s-.649-.788-.649-1.307c0-.23.046-.461.139-.692l8.012-20.055c.415-1.05.894-1.748 1.436-2.094.543-.346 1.2-.519 1.973-.519.52 0 .955.052 1.307.156.352.104.718.357 1.099.761s.721.969 1.021 1.696l8.011 20.055c.093.231.139.461.139.692 0 .519-.216.955-.648 1.307s-.932.527-1.497.527c-.415 0-.796-.112-1.142-.337-.347-.225-.606-.568-.779-1.029l-1.785-4.672zm-5.727-14.967l-4.551 11.922h9.102l-4.551-11.922zM960.215 505.62c-.422-.357-.632-.859-.632-1.505v-20.661c0-.577.21-1.073.632-1.488a2.076 2.076 0 0 1 1.514-.623h7.717c5.953 0 8.929 2.105 8.929 6.316 0 1.453-.464 2.688-1.393 3.703-.929 1.015-2.305 1.673-4.127 1.973v.069c2.918.623 4.557 2.543 4.914 5.762l.554 4.897c0 .023.003.049.009.078s.009.058.009.086v.078a1.866 1.866 0 0 1-.381 1.09c-.404.508-.958.761-1.661.761a2.556 2.556 0 0 1-1.514-.484c-.456-.323-.719-.784-.788-1.384l-.484-4.637c-.092-.876-.216-1.575-.372-2.094a3.474 3.474 0 0 0-.735-1.341c-.334-.375-.77-.634-1.306-.778-.537-.144-1.232-.216-2.086-.216h-5.139v8.894c0 .646-.214 1.148-.641 1.505s-.934.536-1.522.536a2.245 2.245 0 0 1-1.497-.537zm7.76-13.705c.704 0 1.295-.014 1.773-.043a9.177 9.177 0 0 0 1.609-.26c.595-.144 1.07-.343 1.428-.597.357-.254.66-.62.908-1.099s.372-1.058.372-1.739c0-.369-.034-.707-.104-1.012s-.156-.568-.26-.788a1.886 1.886 0 0 0-.441-.588c-.19-.173-.372-.317-.545-.432s-.396-.213-.666-.294a7.897 7.897 0 0 0-.718-.182 5.986 5.986 0 0 0-.787-.086c-.317-.018-.577-.029-.779-.035s-.47-.009-.805-.009h-5.087v7.164h4.102zM984.378 505.567c-.427-.415-.64-.899-.64-1.453v-20.678c0-.554.199-1.041.597-1.462.398-.421.88-.632 1.445-.632h12.666c.507 0 .905.173 1.193.519s.433.744.433 1.194c0 .45-.145.848-.433 1.194-.288.346-.687.519-1.193.519h-10.417v7.025h9.776c.53 0 .938.165 1.22.493.283.329.424.718.424 1.168 0 .438-.146.828-.441 1.168-.294.34-.694.511-1.202.511h-9.776v7.648h10.814c.508 0 .905.173 1.194.519.288.346.433.75.433 1.211 0 .438-.145.828-.433 1.168-.289.34-.687.51-1.194.51h-12.995c-.554.001-1.044-.206-1.471-.622zm6.844-27.287a.83.83 0 0 1-.251-.623c0-.242.093-.479.277-.709l4.17-5.122c.403-.519.824-.779 1.263-.779.462 0 .892.185 1.289.554.398.369.598.785.598 1.246 0 .393-.185.739-.554 1.039l-5.382 4.309c-.276.219-.542.329-.796.329a.858.858 0 0 1-.614-.244zM1005.834 505.567c-.427-.415-.64-.899-.64-1.453v-20.678c0-.554.199-1.041.597-1.462.398-.421.88-.632 1.445-.632h12.666c.507 0 .905.173 1.193.519s.433.744.433 1.194c0 .45-.145.848-.433 1.194-.288.346-.687.519-1.193.519h-10.417v7.025h9.776c.53 0 .938.165 1.22.493.283.329.424.718.424 1.168 0 .438-.146.828-.441 1.168-.294.34-.694.511-1.202.511h-9.776v7.648h10.814c.508 0 .905.173 1.194.519.288.346.433.75.433 1.211 0 .438-.145.828-.433 1.168-.289.34-.687.51-1.194.51h-12.995c-.554.001-1.044-.206-1.471-.622zM1037.491 505.559a2.037 2.037 0 0 1-.649-1.514v-20.591c0-.657.214-1.168.641-1.531s.935-.545 1.522-.545c.589 0 1.09.182 1.506.545.415.363.623.874.623 1.531v19.328h10.295c.508 0 .908.173 1.203.519.294.346.44.744.44 1.194 0 .45-.144.845-.433 1.186-.288.34-.691.51-1.211.51h-12.406a2.128 2.128 0 0 1-1.531-.632zM1056.897 505.567c-.427-.415-.64-.899-.64-1.453v-20.678c0-.554.199-1.041.597-1.462.398-.421.88-.632 1.445-.632h12.666c.507 0 .905.173 1.193.519s.433.744.433 1.194c0 .45-.145.848-.433 1.194-.288.346-.687.519-1.193.519h-10.417v7.025h9.776c.53 0 .938.165 1.22.493.283.329.424.718.424 1.168 0 .438-.146.828-.441 1.168-.294.34-.694.511-1.202.511h-9.776v7.648h10.814c.508 0 .905.173 1.194.519.288.346.433.75.433 1.211 0 .438-.145.828-.433 1.168-.289.34-.687.51-1.194.51h-12.995c-.554.001-1.045-.206-1.471-.622zM1093.701 505.654c-.428-.369-.641-.882-.641-1.54v-19.345h-6.039c-.53 0-.946-.173-1.246-.519a1.768 1.768 0 0 1-.449-1.194c0-.45.149-.848.449-1.194s.716-.519 1.246-.519h16.369c.52 0 .926.173 1.22.519s.441.744.441 1.194c0 .45-.147.848-.441 1.194-.294.346-.7.519-1.22.519h-6.021v19.345c0 .657-.214 1.171-.641 1.54-.427.37-.935.554-1.522.554a2.226 2.226 0 0 1-1.505-.554zM1109.153 505.567c-.427-.415-.64-.899-.64-1.453v-20.678c0-.554.199-1.041.597-1.462.398-.421.88-.632 1.445-.632h12.666c.507 0 .905.173 1.193.519s.433.744.433 1.194c0 .45-.145.848-.433 1.194-.288.346-.687.519-1.193.519h-10.417v7.025h9.776c.53 0 .938.165 1.22.493.283.329.424.718.424 1.168 0 .438-.146.828-.441 1.168-.294.34-.694.511-1.202.511h-9.776v7.648h10.814c.508 0 .905.173 1.194.519.288.346.433.75.433 1.211 0 .438-.145.828-.433 1.168-.289.34-.687.51-1.194.51h-12.995c-.554.001-1.045-.206-1.471-.622zM1142.237 504.927c-.449-.323-.802-.784-1.055-1.384l-7.008-16.594v17.39c0 .45-.196.802-.589 1.056-.393.254-.856.381-1.393.381s-1.001-.127-1.394-.381c-.392-.253-.588-.605-.588-1.056v-19.501c0-.796.32-1.447.96-1.955.641-.507 1.399-.761 2.275-.761.728 0 1.407.199 2.042.597s1.119.995 1.454 1.791l6.713 15.694v5.208c-.495 0-.967-.162-1.417-.485zm1.436-4.723l6.714-15.694c.346-.796.836-1.393 1.471-1.791a3.773 3.773 0 0 1 2.042-.597c.564 0 1.093.11 1.583.329.49.219.889.54 1.194.96.305.421.458.897.458 1.427v19.501c0 .45-.196.802-.588 1.056-.393.254-.856.381-1.394.381-.536 0-1.001-.127-1.393-.381-.393-.253-.588-.605-.588-1.056v-17.39l-7.025 16.594c-.242.588-.592 1.047-1.047 1.375-.456.329-.932.493-1.428.493v-5.207zM1164.039 505.663c-.427-.363-.641-.874-.641-1.531v-20.643c0-.588.214-1.093.641-1.514a2.113 2.113 0 0 1 1.54-.632h7.526c2.884 0 5.09.577 6.619 1.73 1.528 1.154 2.293 3.011 2.293 5.572 0 2.595-.803 4.467-2.405 5.615-1.604 1.148-3.899 1.722-6.887 1.722h-5.035v8.15c0 .658-.211 1.168-.632 1.531-.422.363-.926.545-1.515.545a2.251 2.251 0 0 1-1.504-.545zm8.566-12.952c1.787 0 3.1-.291 3.937-.874.836-.583 1.254-1.646 1.254-3.192 0-1.523-.406-2.552-1.22-3.089-.813-.536-2.097-.805-3.85-.805h-5.035v7.959h4.914zM1184.872 503.699c-.173-.138-.26-.346-.26-.623 0-.23.055-.479.165-.744.109-.265.251-.51.424-.735.173-.225.372-.412.597-.562s.441-.225.649-.225c.08 0 .161.012.242.035.08.023.155.058.225.104 2.122 1.465 4.447 2.197 6.974 2.197 1.603 0 2.903-.297 3.901-.891.998-.594 1.497-1.474 1.497-2.639 0-1.004-.269-1.771-.805-2.301s-1.428-1.004-2.674-1.419l-5.502-1.834c-1.893-.634-3.276-1.445-4.153-2.431-.877-.986-1.314-2.328-1.314-4.023 0-2.122.865-3.801 2.595-5.035 1.73-1.234 3.939-1.852 6.628-1.852a15.5 15.5 0 0 1 4.802.744c1.528.496 2.708 1.096 3.538 1.8.161.127.279.28.354.458s.112.372.112.58c0 .45-.155.859-.467 1.229s-.687.554-1.125.554c-.276 0-.56-.086-.848-.26-1.938-1.119-3.957-1.678-6.056-1.678-1.05 0-1.959.098-2.726.294-.768.196-1.404.548-1.912 1.056s-.762 1.159-.762 1.955c0 .773.205 1.399.614 1.877.41.479 1.064.868 1.964 1.168l5.469 1.748c.854.277 1.601.562 2.24.856.641.294 1.234.637 1.782 1.029.548.393.995.828 1.341 1.307.347.479.617 1.035.813 1.669.196.635.294 1.338.294 2.111 0 1.522-.397 2.841-1.193 3.954s-1.921 1.958-3.374 2.535c-1.454.577-3.155.865-5.104.865-3.725-.001-6.706-.958-8.945-2.873zM915.192 545.574c-2.117-2.348-3.175-5.482-3.175-9.404 0-2.584.464-4.845 1.393-6.783s2.298-3.446 4.109-4.525c1.811-1.079 3.968-1.618 6.472-1.618 2.515 0 4.678.54 6.488 1.618 1.812 1.079 3.178 2.584 4.102 4.516.923 1.932 1.384 4.196 1.384 6.792 0 2.584-.461 4.842-1.384 6.774-.924 1.933-2.29 3.44-4.102 4.524-1.811 1.085-3.974 1.627-6.488 1.627-3.75.001-6.683-1.173-8.799-3.521zm14.336-2.457c1.269-1.701 1.903-4.017 1.903-6.947 0-2.918-.632-5.231-1.895-6.938-1.264-1.707-3.112-2.561-5.546-2.561-2.423 0-4.266.854-5.528 2.561-1.264 1.707-1.895 4.021-1.895 6.938 0 2.931.631 5.246 1.895 6.947 1.263 1.702 3.105 2.553 5.528 2.553 2.422 0 4.268-.851 5.538-2.553zm1.661 9.007l-8.635-4.05 5.261-1.107 4.654 2.284c.634.323.952.79.952 1.401 0 .45-.156.837-.468 1.16-.312.322-.669.484-1.072.484a1.522 1.522 0 0 1-.692-.172zM947.021 548.533c-1.199-.375-2.264-.926-3.192-1.652s-1.658-1.673-2.188-2.838c-.531-1.165-.796-2.485-.796-3.963v-14.24c0-.658.21-1.168.632-1.531.421-.363.931-.545 1.531-.545.576 0 1.078.182 1.505.545s.641.874.641 1.531v14.119c0 .97.164 1.829.493 2.578.328.75.77 1.348 1.323 1.791.554.444 1.165.779 1.834 1.004s1.373.338 2.111.338c.75 0 1.462-.113 2.137-.338s1.289-.56 1.843-1.004c.554-.443.995-1.041 1.324-1.791.328-.749.493-1.608.493-2.578V525.84c0-.658.21-1.168.632-1.531.421-.363.931-.545 1.531-.545.576 0 1.075.182 1.496.545s.632.874.632 1.531v14.24c0 1.478-.269 2.798-.805 3.963s-1.269 2.111-2.197 2.838-1.993 1.277-3.192 1.652c-1.2.375-2.498.563-3.894.563s-2.694-.188-3.894-.563zM967.612 548.092c-.427-.415-.64-.899-.64-1.453v-20.678c0-.554.199-1.041.597-1.462.398-.421.88-.632 1.445-.632h12.666c.507 0 .905.173 1.193.519s.433.744.433 1.194c0 .45-.145.848-.433 1.194-.288.346-.687.519-1.193.519h-10.417v7.025h9.776c.53 0 .938.164 1.22.493.283.329.424.718.424 1.168 0 .438-.146.828-.441 1.168-.294.341-.694.511-1.202.511h-9.776v7.647h10.814c.508 0 .905.174 1.194.52.288.346.433.75.433 1.211 0 .438-.145.828-.433 1.168-.289.341-.687.511-1.194.511h-12.995c-.554 0-1.045-.208-1.471-.623zM1005.152 548.291c-.571-.444-1.053-1.237-1.444-2.379l-6.853-19.674a4.935 4.935 0 0 1-.087-.337 1.56 1.56 0 0 1 .295-1.289 2.14 2.14 0 0 1 .821-.658 2.47 2.47 0 0 1 1.03-.225c.438 0 .836.115 1.193.346.357.231.611.577.762 1.039l6.506 19.275 6.488-19.275a2.017 2.017 0 0 1 .589-.909c.127-.109.265-.199.415-.268a2.248 2.248 0 0 1 .952-.208c.576 0 1.087.173 1.531.519.443.346.666.79.666 1.332 0 .219-.041.439-.121.658l-6.853 19.674c-.392 1.142-.874 1.935-1.444 2.379-.571.443-1.313.666-2.224.666s-1.651-.223-2.222-.666zM1024.03 545.574c-2.117-2.348-3.175-5.482-3.175-9.404 0-2.584.464-4.845 1.393-6.783s2.298-3.446 4.109-4.525c1.811-1.079 3.968-1.618 6.472-1.618 2.515 0 4.678.54 6.488 1.618 1.812 1.079 3.178 2.584 4.102 4.516.923 1.932 1.384 4.196 1.384 6.792 0 2.584-.461 4.842-1.384 6.774-.924 1.933-2.29 3.44-4.102 4.524-1.811 1.085-3.974 1.627-6.488 1.627-3.75.001-6.683-1.173-8.799-3.521zm14.335-2.457c1.269-1.701 1.903-4.017 1.903-6.947 0-2.918-.632-5.231-1.895-6.938-1.264-1.707-3.112-2.561-5.546-2.561-2.423 0-4.266.854-5.528 2.561-1.264 1.707-1.895 4.021-1.895 6.938 0 2.931.631 5.246 1.895 6.947 1.263 1.702 3.105 2.553 5.528 2.553 2.423 0 4.269-.851 5.538-2.553zM1055.859 548.533c-1.199-.375-2.264-.926-3.192-1.652s-1.658-1.673-2.188-2.838c-.531-1.165-.796-2.485-.796-3.963v-14.24c0-.658.21-1.168.632-1.531.421-.363.931-.545 1.531-.545.576 0 1.078.182 1.505.545s.641.874.641 1.531v14.119c0 .97.164 1.829.493 2.578.328.75.77 1.348 1.323 1.791.554.444 1.165.779 1.834 1.004s1.373.338 2.111.338c.75 0 1.462-.113 2.137-.338s1.289-.56 1.843-1.004c.554-.443.995-1.041 1.324-1.791.328-.749.493-1.608.493-2.578V525.84c0-.658.21-1.168.632-1.531.421-.363.931-.545 1.531-.545.576 0 1.075.182 1.496.545s.632.874.632 1.531v14.24c0 1.478-.269 2.798-.805 3.963s-1.269 2.111-2.197 2.838-1.993 1.277-3.192 1.652c-1.2.375-2.498.563-3.894.563s-2.694-.188-3.894-.563zM1075.083 546.224c-.174-.139-.26-.347-.26-.623 0-.231.055-.479.164-.744s.251-.511.424-.735a2.49 2.49 0 0 1 .598-.563c.225-.15.44-.225.648-.225.081 0 .161.011.242.034s.156.058.225.104c2.123 1.466 4.447 2.198 6.974 2.198 1.604 0 2.904-.297 3.902-.892.997-.594 1.496-1.474 1.496-2.639 0-1.004-.268-1.771-.805-2.302-.536-.53-1.427-1.003-2.673-1.419l-5.503-1.834c-1.892-.634-3.276-1.444-4.152-2.431-.877-.986-1.315-2.328-1.315-4.023 0-2.122.865-3.801 2.596-5.035s3.939-1.852 6.627-1.852c1.673 0 3.273.249 4.802.744 1.528.496 2.708 1.096 3.539 1.8.161.127.279.28.354.458.074.179.112.372.112.58 0 .45-.155.859-.467 1.229s-.687.554-1.125.554c-.277 0-.56-.086-.848-.26-1.938-1.119-3.957-1.678-6.057-1.678-1.05 0-1.958.098-2.726.294-.767.196-1.404.548-1.911 1.056-.508.508-.762 1.159-.762 1.955 0 .773.204 1.399.614 1.877.409.479 1.064.868 1.964 1.168l5.468 1.748c.854.276 1.601.563 2.241.856.64.294 1.233.638 1.782 1.029.548.393.994.828 1.341 1.307.346.479.617 1.035.813 1.67a7.16 7.16 0 0 1 .294 2.11c0 1.523-.398 2.841-1.194 3.954s-1.921 1.958-3.374 2.535c-1.453.576-3.155.865-5.104.865-3.724.002-6.706-.956-8.944-2.87zM1114.942 548.291c-.571-.444-1.053-1.237-1.445-2.379l-6.853-19.674a4.395 4.395 0 0 1-.086-.337 1.566 1.566 0 0 1 .294-1.289c.219-.288.493-.507.822-.658a2.465 2.465 0 0 1 1.029-.225c.438 0 .836.115 1.194.346.357.231.611.577.761 1.039l6.506 19.275 6.489-19.275a2.017 2.017 0 0 1 .588-.909 1.78 1.78 0 0 1 .416-.268 2.229 2.229 0 0 1 .951-.208c.577 0 1.087.173 1.531.519.444.346.666.79.666 1.332 0 .219-.04.439-.121.658l-6.852 19.674c-.393 1.142-.874 1.935-1.445 2.379-.57.443-1.313.666-2.224.666s-1.651-.223-2.221-.666zM1133.819 545.574c-2.116-2.348-3.175-5.482-3.175-9.404 0-2.584.464-4.845 1.393-6.783s2.299-3.446 4.11-4.525c1.811-1.079 3.968-1.618 6.471-1.618 2.515 0 4.678.54 6.489 1.618 1.811 1.079 3.178 2.584 4.101 4.516s1.385 4.196 1.385 6.792c0 2.584-.462 4.842-1.385 6.774s-2.29 3.44-4.101 4.524c-1.812 1.085-3.975 1.627-6.489 1.627-3.75.001-6.682-1.173-8.799-3.521zm14.336-2.457c1.27-1.701 1.903-4.017 1.903-6.947 0-2.918-.631-5.231-1.895-6.938-1.263-1.707-3.111-2.561-5.546-2.561-2.422 0-4.265.854-5.528 2.561-1.263 1.707-1.895 4.021-1.895 6.938 0 2.931.632 5.246 1.895 6.947 1.264 1.702 3.106 2.553 5.528 2.553 2.423 0 4.269-.851 5.538-2.553zM1165.649 548.533c-1.2-.375-2.264-.926-3.192-1.652s-1.658-1.673-2.189-2.838c-.53-1.165-.796-2.485-.796-3.963v-14.24c0-.658.211-1.168.632-1.531s.932-.545 1.531-.545c.577 0 1.079.182 1.506.545s.64.874.64 1.531v14.119c0 .97.165 1.829.493 2.578.329.75.771 1.348 1.324 1.791.554.444 1.165.779 1.834 1.004s1.373.338 2.111.338c.749 0 1.462-.113 2.137-.338s1.289-.56 1.843-1.004c.554-.443.995-1.041 1.323-1.791.329-.749.493-1.608.493-2.578V525.84c0-.658.211-1.168.632-1.531s.932-.545 1.531-.545a2.22 2.22 0 0 1 1.497.545c.421.363.632.874.632 1.531v14.24c0 1.478-.269 2.798-.805 3.963-.537 1.165-1.27 2.111-2.198 2.838s-1.992 1.277-3.192 1.652c-1.199.375-2.497.563-3.893.563-1.397 0-2.695-.188-3.894-.563zM1184.873 546.224c-.174-.139-.26-.347-.26-.623 0-.231.055-.479.164-.744s.251-.511.424-.735a2.49 2.49 0 0 1 .598-.563c.225-.15.44-.225.648-.225.081 0 .161.011.242.034s.156.058.225.104c2.123 1.466 4.447 2.198 6.974 2.198 1.604 0 2.904-.297 3.902-.892.997-.594 1.496-1.474 1.496-2.639 0-1.004-.268-1.771-.805-2.302-.536-.53-1.427-1.003-2.673-1.419l-5.503-1.834c-1.892-.634-3.276-1.444-4.152-2.431-.877-.986-1.315-2.328-1.315-4.023 0-2.122.865-3.801 2.596-5.035s3.939-1.852 6.627-1.852c1.673 0 3.273.249 4.802.744 1.528.496 2.708 1.096 3.539 1.8.161.127.279.28.354.458.074.179.112.372.112.58 0 .45-.155.859-.467 1.229s-.687.554-1.125.554c-.277 0-.56-.086-.848-.26-1.938-1.119-3.957-1.678-6.057-1.678-1.05 0-1.958.098-2.726.294-.767.196-1.404.548-1.911 1.056-.508.508-.762 1.159-.762 1.955 0 .773.204 1.399.614 1.877.409.479 1.064.868 1.964 1.168l5.468 1.748c.854.276 1.601.563 2.241.856.64.294 1.233.638 1.782 1.029.548.393.994.828 1.341 1.307.346.479.617 1.035.813 1.67a7.16 7.16 0 0 1 .294 2.11c0 1.523-.398 2.841-1.194 3.954s-1.921 1.958-3.374 2.535c-1.453.576-3.155.865-5.104.865-3.724.002-6.706-.956-8.944-2.87zM1017.645 590.608a1.984 1.984 0 0 1-.632-1.479v-20.625c0-.577.21-1.073.632-1.488a2.08 2.08 0 0 1 1.514-.623h5.952c4.406 0 7.743 1.073 10.01 3.219s3.4 5.242 3.4 9.292c0 3.968-1.145 7.014-3.435 9.136-2.29 2.123-5.511 3.184-9.664 3.184h-6.264a2.092 2.092 0 0 1-1.513-.616zm8.037-2.794c1.58 0 2.909-.182 3.988-.545 1.078-.364 1.94-.929 2.587-1.696.646-.767 1.11-1.695 1.393-2.786.283-1.09.424-2.413.424-3.971 0-3.253-.712-5.568-2.137-6.947-1.425-1.378-3.683-2.067-6.774-2.067h-3.858v18.013h4.377zM1044.092 590.617c-.427-.415-.64-.899-.64-1.453v-20.678c0-.554.199-1.041.597-1.462.398-.421.88-.632 1.445-.632h12.666c.507 0 .905.173 1.193.52.288.346.433.744.433 1.193 0 .45-.145.848-.433 1.194-.288.346-.687.519-1.193.519h-10.417v7.025h9.776c.53 0 .938.164 1.22.493.283.329.424.718.424 1.168 0 .438-.146.828-.441 1.168-.294.341-.694.511-1.202.511h-9.776v7.647h10.814c.508 0 .905.174 1.194.52.288.346.433.75.433 1.211 0 .438-.145.828-.433 1.168-.289.341-.687.511-1.194.511h-12.995c-.554 0-1.044-.208-1.471-.623zm6.844-27.287a.828.828 0 0 1-.251-.623c0-.242.093-.479.277-.709l4.17-5.122c.403-.52.824-.779 1.263-.779.462 0 .892.186 1.289.554.398.37.598.785.598 1.246 0 .393-.185.738-.554 1.038l-5.382 4.309c-.276.22-.542.329-.796.329a.857.857 0 0 1-.614-.243zM1065.548 590.713c-.427-.364-.64-.874-.64-1.532v-20.643c0-.588.213-1.093.64-1.514s.94-.632 1.54-.632h7.527c2.884 0 5.09.577 6.618 1.73s2.293 3.011 2.293 5.571c0 2.596-.802 4.468-2.405 5.615-1.604 1.148-3.899 1.722-6.887 1.722h-5.035v8.149c0 .658-.211 1.168-.632 1.532-.421.363-.926.545-1.514.545a2.24 2.24 0 0 1-1.505-.543zm8.566-12.952c1.788 0 3.1-.291 3.937-.874.836-.582 1.255-1.646 1.255-3.192 0-1.522-.407-2.552-1.22-3.088-.813-.537-2.097-.805-3.851-.805h-5.035v7.959h4.914zM1087.757 590.608a2.036 2.036 0 0 1-.648-1.514v-20.591c0-.658.213-1.168.64-1.531s.935-.546 1.523-.546c.588 0 1.09.183 1.505.546s.623.873.623 1.531v19.327h10.296c.507 0 .908.174 1.202.52s.441.744.441 1.194c0 .449-.145.845-.433 1.185-.289.341-.692.511-1.211.511h-12.407a2.12 2.12 0 0 1-1.531-.632zM1121.836 585.34h-11.438l-1.782 4.672c-.173.462-.433.805-.778 1.029a2.046 2.046 0 0 1-1.143.338 2.304 2.304 0 0 1-1.496-.528c-.433-.352-.649-.787-.649-1.306 0-.231.046-.462.139-.692l8.012-20.055c.415-1.05.894-1.748 1.436-2.094.543-.346 1.2-.52 1.973-.52.52 0 .955.053 1.307.156s.718.357 1.099.762c.381.403.721.969 1.021 1.695l8.011 20.055c.093.23.139.461.139.692 0 .519-.216.954-.648 1.306a2.3 2.3 0 0 1-1.497.528c-.415 0-.796-.112-1.142-.338-.347-.225-.606-.567-.779-1.029l-1.785-4.671zm-5.727-14.968l-4.551 11.922h9.102l-4.551-11.922zM1136.172 589.985c-1.771-1.09-3.138-2.606-4.101-4.551-.964-1.943-1.445-4.155-1.445-6.636 0-2.572.508-4.848 1.522-6.826 1.016-1.978 2.438-3.506 4.266-4.585 1.828-1.078 3.913-1.618 6.255-1.618 2.227 0 4.326.52 6.299 1.558.703.357 1.056.859 1.056 1.505a1.736 1.736 0 0 1-.234.865 2.031 2.031 0 0 1-.623.649 1.736 1.736 0 0 1-.407.182c-.149.046-.3.069-.449.069h-.139c-.046 0-.093-.006-.139-.018l-.139-.034a.652.652 0 0 1-.138-.053l-.728-.337c-.461-.214-.83-.369-1.107-.468-.276-.098-.706-.204-1.289-.319a9.223 9.223 0 0 0-1.79-.174c-2.48 0-4.381.854-5.702 2.562-1.32 1.707-1.981 4.025-1.981 6.956 0 2.953.669 5.271 2.008 6.956 1.338 1.684 3.287 2.526 5.849 2.526.681 0 1.353-.084 2.016-.251s1.186-.338 1.565-.511c.381-.173.871-.421 1.472-.744.114-.058.233-.104.354-.139.121-.034.239-.052.354-.052.427 0 .79.173 1.09.52a1.747 1.747 0 0 1 .416 1.514c-.023.109-.059.217-.104.32s-.104.207-.173.312a1.674 1.674 0 0 1-.251.294 2.273 2.273 0 0 1-.337.26c-2.008 1.269-4.396 1.903-7.164 1.903-2.284.001-4.311-.544-6.082-1.635zM1156.002 590.66c-.422-.363-.632-.867-.632-1.514v-20.694c0-.658.213-1.168.64-1.532a2.276 2.276 0 0 1 1.523-.545c.576 0 1.078.182 1.505.545.427.364.641.874.641 1.532v20.694c0 .657-.214 1.165-.641 1.522a2.294 2.294 0 0 1-1.522.537c-.589.001-1.093-.181-1.514-.545zM1166.6 590.617c-.427-.415-.64-.899-.64-1.453v-20.678c0-.554.199-1.041.597-1.462.398-.421.88-.632 1.445-.632h12.666c.507 0 .905.173 1.193.52.288.346.433.744.433 1.193 0 .45-.145.848-.433 1.194-.288.346-.687.519-1.193.519h-10.417v7.025h9.776c.53 0 .938.164 1.22.493.283.329.424.718.424 1.168 0 .438-.146.828-.441 1.168-.294.341-.694.511-1.202.511h-9.776v7.647h10.814c.508 0 .905.174 1.194.52.288.346.433.75.433 1.211 0 .438-.145.828-.433 1.168-.289.341-.687.511-1.194.511h-12.995c-.554 0-1.044-.208-1.471-.623zM1186.629 590.721a1.718 1.718 0 0 1-.545-1.297c0-.427.144-.859.433-1.298l12.666-18.308h-11.265c-.508 0-.906-.176-1.194-.527s-.433-.753-.433-1.203c0-.449.142-.845.424-1.185.283-.341.684-.511 1.203-.511h14.569c.576 0 1.038.167 1.384.502.347.335.52.756.52 1.263 0 .474-.15.924-.45 1.35l-12.718 18.324h11.438c.508 0 .905.171 1.194.511.288.341.433.735.433 1.186s-.145.848-.433 1.193c-.289.347-.687.52-1.194.52h-14.431c-.704-.001-1.238-.174-1.601-.52z"/></g><g fill="#525e77"><path d="M1346.371 88.728c-.571-.444-1.053-1.237-1.444-2.379l-6.853-19.674a4.935 4.935 0 0 1-.087-.337 1.56 1.56 0 0 1 .295-1.289 2.14 2.14 0 0 1 .821-.658 2.47 2.47 0 0 1 1.03-.225c.438 0 .836.115 1.193.346.357.231.611.577.762 1.039l6.506 19.276 6.488-19.276a2.017 2.017 0 0 1 .589-.909c.127-.109.265-.199.415-.268a2.248 2.248 0 0 1 .952-.208c.576 0 1.087.173 1.531.519.443.346.666.79.666 1.332 0 .219-.041.439-.121.658l-6.853 19.674c-.392 1.142-.874 1.936-1.444 2.379-.571.444-1.313.666-2.224.666s-1.65-.223-2.222-.666zM1365.249 86.011c-2.117-2.347-3.175-5.482-3.175-9.404 0-2.584.464-4.845 1.393-6.783s2.298-3.446 4.109-4.525c1.811-1.079 3.968-1.618 6.472-1.618 2.515 0 4.678.54 6.488 1.618 1.812 1.079 3.178 2.584 4.102 4.516.923 1.932 1.384 4.196 1.384 6.792 0 2.584-.461 4.842-1.384 6.774-.924 1.932-2.29 3.44-4.102 4.525-1.811 1.084-3.974 1.626-6.488 1.626-3.749 0-6.683-1.174-8.799-3.521zm14.336-2.457c1.269-1.701 1.903-4.017 1.903-6.947 0-2.918-.632-5.231-1.895-6.938-1.264-1.707-3.112-2.561-5.546-2.561-2.423 0-4.266.854-5.528 2.561-1.264 1.707-1.895 4.02-1.895 6.938 0 2.93.631 5.246 1.895 6.947 1.263 1.702 3.105 2.552 5.528 2.552 2.423 0 4.269-.851 5.538-2.552zM1397.078 88.97a9.949 9.949 0 0 1-3.192-1.652c-.929-.727-1.658-1.673-2.188-2.838-.531-1.165-.796-2.486-.796-3.962V66.276c0-.658.21-1.168.632-1.531.421-.363.931-.545 1.531-.545.576 0 1.078.182 1.505.545s.641.874.641 1.531v14.12c0 .969.164 1.828.493 2.578.328.75.77 1.347 1.323 1.791.554.444 1.165.778 1.834 1.003s1.373.337 2.111.337c.75 0 1.462-.112 2.137-.337s1.289-.56 1.843-1.003c.554-.444.995-1.041 1.324-1.791.328-.75.493-1.609.493-2.578v-14.12c0-.658.21-1.168.632-1.531.421-.363.931-.545 1.531-.545.576 0 1.075.182 1.496.545s.632.874.632 1.531v14.241c0 1.477-.269 2.797-.805 3.962s-1.269 2.111-2.197 2.838a9.94 9.94 0 0 1-3.192 1.652c-1.2.375-2.498.563-3.894.563s-2.693-.188-3.894-.562zM1416.303 86.66c-.174-.138-.26-.346-.26-.623 0-.23.055-.479.164-.744.109-.265.251-.51.424-.735.173-.225.372-.412.598-.562.225-.15.44-.225.648-.225a.88.88 0 0 1 .467.139c2.123 1.465 4.447 2.197 6.974 2.197 1.604 0 2.904-.297 3.902-.891.997-.594 1.496-1.474 1.496-2.639 0-1.004-.268-1.771-.805-2.301-.536-.531-1.427-1.004-2.673-1.419l-5.503-1.834c-1.892-.634-3.276-1.445-4.152-2.431-.877-.986-1.315-2.328-1.315-4.023 0-2.122.865-3.801 2.596-5.035s3.939-1.852 6.627-1.852c1.673 0 3.273.249 4.802.744 1.528.496 2.708 1.096 3.539 1.8.161.127.279.28.354.458.074.179.112.372.112.58 0 .45-.155.859-.467 1.229s-.687.554-1.125.554c-.277 0-.56-.086-.848-.26-1.938-1.119-3.957-1.678-6.057-1.678-1.05 0-1.958.098-2.726.294-.767.196-1.404.548-1.911 1.056-.508.508-.762 1.159-.762 1.955 0 .773.204 1.399.614 1.877.409.479 1.064.868 1.964 1.168l5.468 1.748c.854.277 1.601.562 2.241.856.64.294 1.233.637 1.782 1.029.548.393.994.828 1.341 1.307a5.7 5.7 0 0 1 .813 1.669c.195.635.294 1.338.294 2.111 0 1.522-.398 2.841-1.194 3.954-.796 1.113-1.921 1.958-3.374 2.535s-3.155.865-5.104.865c-3.724-.001-6.707-.958-8.944-2.873zM1464.943 83.251h-11.438l-1.782 4.672c-.173.461-.433.805-.779 1.029a2.052 2.052 0 0 1-1.142.337c-.565 0-1.064-.175-1.497-.527s-.648-.788-.648-1.307c0-.23.046-.461.139-.692l8.011-20.055c.416-1.05.895-1.748 1.437-2.094s1.199-.519 1.973-.519c.519 0 .954.052 1.307.156.352.104.718.357 1.099.761s.721.969 1.021 1.696l8.012 20.055c.092.231.139.461.139.692 0 .519-.217.955-.649 1.307s-.932.527-1.496.527c-.416 0-.797-.112-1.143-.337-.346-.225-.605-.568-.778-1.029l-1.786-4.672zm-5.728-14.967l-4.551 11.922h9.102l-4.551-11.922zM1475.403 88.581c-.421-.357-.632-.859-.632-1.505V66.415c0-.577.211-1.073.632-1.488a2.077 2.077 0 0 1 1.514-.623h7.718c5.952 0 8.929 2.105 8.929 6.316 0 1.453-.465 2.688-1.394 3.703-.929 1.015-2.304 1.673-4.127 1.973v.069c2.919.623 4.557 2.543 4.915 5.762l.554 4.897c0 .023.002.049.008.078s.009.058.009.086v.078a1.859 1.859 0 0 1-.381 1.09c-.403.508-.957.761-1.661.761a2.559 2.559 0 0 1-1.514-.484c-.456-.323-.718-.784-.787-1.384l-.484-4.637c-.093-.876-.217-1.575-.372-2.094a3.5 3.5 0 0 0-.735-1.341c-.335-.375-.771-.634-1.307-.778s-1.231-.216-2.085-.216H1479.064v8.894c0 .646-.214 1.148-.641 1.505s-.935.536-1.522.536a2.246 2.246 0 0 1-1.498-.537zm7.76-13.705c.703 0 1.295-.014 1.773-.043s1.015-.115 1.609-.26c.594-.144 1.069-.343 1.428-.597.357-.254.66-.62.908-1.099s.372-1.058.372-1.739c0-.369-.035-.707-.104-1.012a3.753 3.753 0 0 0-.259-.788 1.886 1.886 0 0 0-.441-.588c-.19-.173-.372-.317-.545-.432s-.396-.213-.666-.294a7.828 7.828 0 0 0-.719-.182 5.946 5.946 0 0 0-.787-.086 29.468 29.468 0 0 0-.778-.035 28.465 28.465 0 0 0-.805-.009h-5.087v7.164h4.101zM1499.558 88.581c-.421-.357-.632-.859-.632-1.505V66.415c0-.577.211-1.073.632-1.488a2.077 2.077 0 0 1 1.514-.623h7.718c5.952 0 8.929 2.105 8.929 6.316 0 1.453-.465 2.688-1.394 3.703-.929 1.015-2.304 1.673-4.127 1.973v.069c2.919.623 4.557 2.543 4.915 5.762l.554 4.897c0 .023.002.049.008.078s.009.058.009.086v.078a1.859 1.859 0 0 1-.381 1.09c-.403.508-.957.761-1.661.761a2.559 2.559 0 0 1-1.514-.484c-.456-.323-.718-.784-.787-1.384l-.484-4.637c-.093-.876-.217-1.575-.372-2.094a3.5 3.5 0 0 0-.735-1.341c-.335-.375-.771-.634-1.307-.778s-1.231-.216-2.085-.216H1503.219v8.894c0 .646-.214 1.148-.641 1.505s-.935.536-1.522.536a2.247 2.247 0 0 1-1.498-.537zm7.761-13.705c.703 0 1.295-.014 1.773-.043s1.015-.115 1.609-.26c.594-.144 1.069-.343 1.428-.597.357-.254.66-.62.908-1.099s.372-1.058.372-1.739c0-.369-.035-.707-.104-1.012a3.753 3.753 0 0 0-.259-.788 1.886 1.886 0 0 0-.441-.588c-.19-.173-.372-.317-.545-.432s-.396-.213-.666-.294a7.828 7.828 0 0 0-.719-.182 5.946 5.946 0 0 0-.787-.086 29.468 29.468 0 0 0-.778-.035 28.465 28.465 0 0 0-.805-.009h-5.087v7.164h4.101zM1523.99 88.572c-.422-.363-.632-.868-.632-1.514V66.363c0-.657.213-1.168.64-1.531s.935-.545 1.523-.545c.576 0 1.078.182 1.505.545s.641.874.641 1.531v20.695c0 .658-.214 1.166-.641 1.523s-.935.536-1.522.536c-.589 0-1.093-.182-1.514-.545zM1540.481 88.728c-.571-.444-1.053-1.237-1.445-2.379l-6.853-19.674a4.395 4.395 0 0 1-.086-.337 1.566 1.566 0 0 1 .294-1.289c.219-.288.493-.507.822-.658a2.465 2.465 0 0 1 1.029-.225c.438 0 .836.115 1.194.346.357.231.611.577.761 1.039l6.506 19.276 6.489-19.276a2.017 2.017 0 0 1 .588-.909 1.78 1.78 0 0 1 .416-.268 2.229 2.229 0 0 1 .951-.208c.577 0 1.087.173 1.531.519.444.346.666.79.666 1.332 0 .219-.04.439-.121.658l-6.852 19.674c-.393 1.142-.874 1.936-1.445 2.379-.57.444-1.313.666-2.224.666s-1.651-.223-2.221-.666zM1557.948 88.528c-.427-.415-.64-.899-.64-1.453V66.397c0-.554.199-1.041.597-1.462.398-.421.88-.632 1.445-.632h12.666c.507 0 .905.173 1.193.519s.433.744.433 1.194c0 .45-.145.848-.433 1.194-.288.346-.687.519-1.193.519h-10.417v7.025h9.776c.53 0 .938.165 1.22.493.283.329.424.718.424 1.168 0 .438-.146.828-.441 1.168-.294.34-.694.511-1.202.511h-9.776v7.648h10.814c.508 0 .905.173 1.194.519.288.346.433.75.433 1.211 0 .438-.145.828-.433 1.168-.289.34-.687.51-1.194.51h-12.995c-.554.001-1.045-.206-1.471-.622zM1577.977 88.632a1.72 1.72 0 0 1-.545-1.298c0-.427.144-.859.433-1.298l12.666-18.307h-11.265c-.508 0-.906-.176-1.194-.528s-.433-.753-.433-1.203.142-.845.424-1.185c.283-.34.684-.511 1.203-.511h14.569c.576 0 1.038.167 1.384.502.347.334.52.755.52 1.263 0 .473-.15.923-.45 1.35l-12.718 18.324h11.438c.508 0 .905.17 1.194.51.288.34.433.735.433 1.186 0 .45-.145.848-.433 1.194-.289.346-.687.519-1.194.519h-14.431c-.705.001-1.238-.171-1.601-.518zM1608.889 92.422c0-.069.006-.139.018-.208l1.453-8.357c.104-.623.524-.946 1.264-.969h2.283c.427.035.641.254.641.657a.9.9 0 0 1-.052.312l-2.925 8.357c-.092.266-.207.456-.346.571-.139.115-.329.173-.571.173h-1.332c-.289-.012-.433-.19-.433-.536zm1.791-17.554a2.077 2.077 0 0 1-.649-1.549c0-.577.214-1.076.641-1.497.427-.421.98-.632 1.661-.632.657 0 1.202.208 1.635.623.433.415.649.917.649 1.505 0 .6-.211 1.113-.632 1.54s-.972.64-1.652.64c-.67.001-1.22-.209-1.653-.63zM1344.347 130.421c-1.771-1.09-3.138-2.606-4.101-4.551-.964-1.943-1.445-4.155-1.445-6.636 0-2.572.508-4.847 1.522-6.826 1.016-1.979 2.438-3.507 4.266-4.585s3.913-1.618 6.255-1.618c2.227 0 4.326.52 6.299 1.558.703.357 1.056.859 1.056 1.505a1.742 1.742 0 0 1-.234.866 2.031 2.031 0 0 1-.623.649 1.778 1.778 0 0 1-.407.182c-.149.046-.3.069-.449.069h-.139a.551.551 0 0 1-.139-.017 7.063 7.063 0 0 1-.139-.035.647.647 0 0 1-.138-.052c-.023-.012-.266-.124-.728-.337-.461-.213-.83-.369-1.107-.467-.276-.098-.706-.205-1.289-.32a9.223 9.223 0 0 0-1.79-.173c-2.48 0-4.381.854-5.702 2.561-1.32 1.707-1.981 4.025-1.981 6.956 0 2.953.669 5.271 2.008 6.956 1.338 1.684 3.287 2.526 5.849 2.526.681 0 1.353-.084 2.016-.251s1.186-.338 1.565-.511c.381-.173.871-.421 1.472-.744.114-.058.233-.104.354-.139.121-.034.239-.052.354-.052.427 0 .79.173 1.09.52a1.747 1.747 0 0 1 .416 1.514c-.023.109-.059.217-.104.32s-.104.207-.173.312a1.674 1.674 0 0 1-.251.294 2.273 2.273 0 0 1-.337.26c-2.008 1.269-4.396 1.903-7.164 1.903-2.284-.001-4.312-.546-6.082-1.637zM1362.714 115.653v-.053-.061c0-.018.003-.034.009-.052a.132.132 0 0 0 .009-.043l1.367-7.648c.104-.623.524-.946 1.263-.969h2.423c.427 0 .64.219.64.658a.88.88 0 0 1-.052.312l-2.976 7.648c-.174.496-.496.744-.97.744h-1.28c-.288 0-.433-.178-.433-.536zM1374.446 131.053c-.427-.415-.64-.899-.64-1.453v-20.678c0-.554.199-1.041.597-1.462.398-.421.88-.632 1.445-.632h12.666c.507 0 .905.173 1.193.519s.433.744.433 1.194c0 .45-.145.848-.433 1.194-.288.346-.687.519-1.193.519h-10.417v7.025h9.776c.53 0 .938.164 1.22.493.283.329.424.718.424 1.168 0 .438-.146.828-.441 1.168-.294.341-.694.511-1.202.511h-9.776v7.647h10.814c.508 0 .905.174 1.194.52.288.346.433.75.433 1.211 0 .438-.145.828-.433 1.168-.289.341-.687.511-1.194.511h-12.995c-.554 0-1.045-.208-1.471-.623zM1394.76 129.185c-.173-.139-.26-.347-.26-.623 0-.231.055-.479.165-.744.109-.266.251-.511.424-.735.173-.226.372-.412.597-.563s.441-.225.649-.225a.822.822 0 0 1 .467.138c2.122 1.466 4.447 2.198 6.974 2.198 1.603 0 2.903-.297 3.901-.892.998-.594 1.497-1.474 1.497-2.639 0-1.004-.269-1.771-.805-2.302-.536-.53-1.428-1.003-2.674-1.419l-5.502-1.834c-1.893-.634-3.276-1.444-4.153-2.431s-1.314-2.328-1.314-4.023c0-2.122.865-3.801 2.595-5.035 1.73-1.234 3.939-1.852 6.628-1.852a15.5 15.5 0 0 1 4.802.744c1.528.496 2.708 1.096 3.538 1.8.161.127.279.28.354.458s.112.372.112.58c0 .45-.155.859-.467 1.229s-.687.554-1.125.554c-.276 0-.56-.086-.848-.26-1.938-1.119-3.957-1.678-6.056-1.678-1.05 0-1.959.098-2.726.294-.768.196-1.404.548-1.912 1.056s-.762 1.159-.762 1.955c0 .773.205 1.399.614 1.877.41.479 1.064.868 1.964 1.168l5.469 1.748c.854.276 1.601.563 2.24.856.641.294 1.234.638 1.782 1.029.548.393.995.828 1.341 1.307.347.479.617 1.035.813 1.67.196.634.294 1.338.294 2.11 0 1.523-.397 2.841-1.193 3.954s-1.921 1.958-3.374 2.535c-1.454.576-3.155.865-5.104.865-3.725.002-6.707-.956-8.945-2.87zM1423.916 131.14c-.427-.369-.641-.883-.641-1.54v-19.345h-6.038c-.531 0-.946-.173-1.246-.519a1.77 1.77 0 0 1-.45-1.194c0-.45.15-.848.45-1.194s.715-.519 1.246-.519h16.368c.52 0 .926.173 1.221.519.294.346.44.744.44 1.194 0 .45-.146.848-.44 1.194-.295.346-.701.519-1.221.519h-6.021V129.6c0 .657-.213 1.171-.64 1.54s-.935.554-1.522.554a2.236 2.236 0 0 1-1.506-.554zM1449.335 131.148c-.427-.364-.641-.874-.641-1.532v-20.643c0-.588.214-1.093.641-1.514a2.113 2.113 0 0 1 1.54-.632h7.526c2.884 0 5.09.577 6.619 1.73 1.528 1.154 2.293 3.011 2.293 5.572 0 2.595-.803 4.467-2.405 5.615-1.604 1.148-3.899 1.722-6.887 1.722h-5.035v8.149c0 .658-.211 1.168-.632 1.532-.422.363-.926.545-1.515.545a2.24 2.24 0 0 1-1.504-.544zm8.566-12.952c1.787 0 3.1-.291 3.937-.874.836-.582 1.254-1.646 1.254-3.192 0-1.523-.406-2.552-1.22-3.089-.813-.536-2.097-.805-3.85-.805h-5.035v7.959h4.914zM1471.527 131.104c-.421-.357-.632-.859-.632-1.505v-20.661c0-.577.211-1.073.632-1.488a2.077 2.077 0 0 1 1.514-.623h7.718c5.952 0 8.929 2.105 8.929 6.316 0 1.453-.465 2.688-1.394 3.703-.929 1.016-2.304 1.673-4.127 1.973v.069c2.919.623 4.557 2.544 4.915 5.762l.554 4.897c0 .022.002.049.008.077a.436.436 0 0 1 .009.087v.078a1.864 1.864 0 0 1-.381 1.09c-.403.508-.957.762-1.661.762a2.56 2.56 0 0 1-1.514-.485c-.456-.322-.718-.784-.787-1.384l-.484-4.638c-.093-.876-.217-1.574-.372-2.094a3.5 3.5 0 0 0-.735-1.341c-.335-.375-.771-.634-1.307-.778s-1.231-.217-2.085-.217H1475.188v8.895c0 .646-.214 1.147-.641 1.505a2.294 2.294 0 0 1-1.522.537 2.227 2.227 0 0 1-1.498-.537zm7.76-13.704c.703 0 1.295-.015 1.773-.043a9.192 9.192 0 0 0 1.609-.26c.594-.145 1.069-.343 1.428-.597.357-.254.66-.62.908-1.1.248-.478.372-1.058.372-1.738 0-.369-.035-.707-.104-1.012a3.753 3.753 0 0 0-.259-.788 1.886 1.886 0 0 0-.441-.588c-.19-.173-.372-.317-.545-.432s-.396-.213-.666-.294a7.828 7.828 0 0 0-.719-.182 5.946 5.946 0 0 0-.787-.086 29.468 29.468 0 0 0-.778-.035 28.465 28.465 0 0 0-.805-.009h-5.087v7.164h4.101zM1495.691 131.053c-.427-.415-.641-.899-.641-1.453v-20.678c0-.554.199-1.041.598-1.462a1.913 1.913 0 0 1 1.444-.632h12.666c.508 0 .905.173 1.194.519.288.346.433.744.433 1.194 0 .45-.145.848-.433 1.194-.289.346-.687.519-1.194.519h-10.416v7.025h9.776c.53 0 .937.164 1.22.493.282.329.424.718.424 1.168 0 .438-.147.828-.441 1.168-.294.341-.695.511-1.202.511h-9.776v7.647h10.814c.507 0 .905.174 1.193.52s.433.75.433 1.211c0 .438-.145.828-.433 1.168-.288.341-.687.511-1.193.511h-12.995c-.554 0-1.045-.208-1.471-.623zm2.43-26.145c-.213-.208-.319-.479-.319-.813 0-.265.121-.554.363-.865l3.287-4.481c.52-.646 1.09-.969 1.713-.969.611 0 1.183.323 1.713.969l3.271 4.464c.23.334.347.634.347.899 0 .312-.11.571-.329.779a1.16 1.16 0 0 1-.83.312c-.52 0-.964-.248-1.333-.744l-2.82-3.807-2.855 3.807c-.403.508-.859.761-1.366.761-.348-.001-.628-.105-.842-.312zM1522.303 131.14c-.427-.369-.641-.883-.641-1.54v-19.345h-6.038c-.531 0-.946-.173-1.246-.519a1.77 1.77 0 0 1-.45-1.194c0-.45.15-.848.45-1.194s.715-.519 1.246-.519h16.368c.52 0 .926.173 1.221.519.294.346.44.744.44 1.194 0 .45-.146.848-.44 1.194-.295.346-.701.519-1.221.519h-6.021V129.6c0 .657-.213 1.171-.64 1.54s-.935.554-1.522.554a2.236 2.236 0 0 1-1.506-.554zM1548.864 107.866v-.069c0-.023-.003-.046-.009-.069s-.008-.046-.008-.069c0-.6.228-1.07.683-1.41.456-.34.992-.51 1.609-.51s1.153.17 1.609.51.684.811.684 1.41c0 .069-.006.139-.018.208l-1.142 15.262c-.046.381-.176.672-.39.874s-.464.303-.753.303c-.185 0-.354-.043-.51-.13a1.16 1.16 0 0 1-.407-.398 1.406 1.406 0 0 1-.207-.648l-1.141-15.264zm.692 23.265c-.438-.421-.657-.926-.657-1.515 0-.576.213-1.078.64-1.505s.98-.641 1.661-.641c.646 0 1.188.208 1.627.623s.657.923.657 1.522c0 .577-.214 1.079-.64 1.506-.428.427-.976.641-1.645.641-.657.001-1.205-.21-1.643-.631z"/></g><path d="M98.627 291.287h-1c0-53.762 43.738-97.5 97.5-97.5 24.25 0 47.493 8.96 65.448 25.229l-.672.741c-17.77-16.103-40.775-24.97-64.776-24.97-53.211 0-96.5 43.289-96.5 96.5z" fill="#525e77"/><path fill="#525e77" d="M255.033 220.266l-.025-1.001 4.929-.119-.478-4.908.996-.096.582 5.977zM688.412 206.582l-.939-.346c14.303-38.88 42.89-69.864 80.495-87.244 37.606-17.38 79.728-19.075 118.609-4.772 36.426 13.399 66.312 39.743 84.151 74.179l-.889.46c-17.725-34.214-47.417-60.388-83.608-73.701-38.628-14.209-80.48-12.526-117.844 4.741-37.362 17.268-65.765 48.053-79.975 86.683z"/><path fill="#525e77" d="M965.094 187.659l.321-.948 4.668 1.59 1.245-4.771.968.253-1.518 5.811zM431.534 404.242a97.884 97.884 0 0 1-27.102-3.847c-25.028-7.202-45.753-23.718-58.358-46.508l.875-.484c12.476 22.556 32.988 38.904 57.759 46.031 24.772 7.128 50.836 4.183 73.391-8.293 21.002-11.616 36.84-30.51 44.598-53.202l.945.323c-7.837 22.927-23.839 42.018-45.059 53.754-14.646 8.101-30.762 12.226-47.049 12.226z"/><path fill="#525e77" d="M525.899 342.585l-.919.398-1.955-4.526-4.372 2.281-.462-.887 5.325-2.778zM1384.216 577.054c-34.355 0-67.712-18.163-85.484-50.293l.875-.484c25.756 46.564 84.591 63.492 131.15 37.738 21.003-11.617 36.842-30.511 44.599-53.202l.945.323c-7.837 22.927-23.84 42.017-45.06 53.754-14.914 8.249-31.079 12.164-47.025 12.164z"/><path fill="#525e77" d="M1478.557 515.459l-.919.398-1.955-4.527-4.372 2.282-.462-.888 5.325-2.777zM138.044 526.746H7.428c-4.096 0-7.428-3.332-7.428-7.428v-271c0-4.096 3.333-7.428 7.428-7.428h130.616c4.096 0 7.428 3.333 7.428 7.428v271c0 4.096-3.332 7.428-7.428 7.428zM7.428 241.89A6.436 6.436 0 0 0 1 248.318v271a6.436 6.436 0 0 0 6.428 6.428h130.616a6.436 6.436 0 0 0 6.428-6.428v-271a6.436 6.436 0 0 0-6.428-6.428H7.428z"/><path d="M140.021 494.035H5.452V265.422h134.569v228.613zm-133.569-1h132.569V266.422H6.452v226.613zM101.517 258.245H43.955v-6.793h57.562v6.793zm-56.562-1h55.562v-4.793H44.955v4.793zM72.736 522.43c-6.413 0-11.63-5.218-11.63-11.631s5.217-11.631 11.63-11.631 11.631 5.218 11.631 11.631-5.218 11.631-11.631 11.631zm0-22.262c-5.862 0-10.63 4.769-10.63 10.631s4.769 10.631 10.63 10.631 10.631-4.769 10.631-10.631-4.769-10.631-10.631-10.631z" fill="#525e77"/><path d="M29.481 329.873c-4.26 0-7.727-3.466-7.727-7.727s3.466-7.727 7.727-7.727 7.727 3.466 7.727 7.727-3.467 7.727-7.727 7.727zm0-14.454c-3.709 0-6.727 3.018-6.727 6.727s3.018 6.727 6.727 6.727 6.727-3.018 6.727-6.727-3.018-6.727-6.727-6.727zM29.481 362.539c-4.26 0-7.727-3.466-7.727-7.727s3.466-7.726 7.727-7.726 7.727 3.466 7.727 7.726-3.467 7.727-7.727 7.727zm0-14.453c-3.709 0-6.727 3.017-6.727 6.726s3.018 6.727 6.727 6.727 6.727-3.018 6.727-6.727-3.018-6.726-6.727-6.726zM29.481 395.206c-4.26 0-7.727-3.466-7.727-7.726s3.466-7.727 7.727-7.727 7.727 3.466 7.727 7.727-3.467 7.726-7.727 7.726zm0-14.453c-3.709 0-6.727 3.018-6.727 6.727s3.018 6.726 6.727 6.726 6.727-3.017 6.727-6.726-3.018-6.727-6.727-6.727zM29.481 427.873c-4.26 0-7.727-3.466-7.727-7.727s3.466-7.727 7.727-7.727 7.727 3.466 7.727 7.727-3.467 7.727-7.727 7.727zm0-14.454c-3.709 0-6.727 3.018-6.727 6.727s3.018 6.727 6.727 6.727 6.727-3.018 6.727-6.727-3.018-6.727-6.727-6.727z" fill="#ee73a7"/><path fill="#525e77" d="M49.707 328.937h23.029v1H49.707zM49.707 321.646H88.04v1H49.707zM49.707 314.355h55v1h-55zM49.707 361.604h23.029v1H49.707zM49.707 354.313H88.04v1H49.707zM49.707 347.022h55v1h-55zM49.707 394.27h23.029v1H49.707zM49.707 386.979H88.04v1H49.707zM49.707 379.689h55v1h-55zM49.707 426.937h23.029v1H49.707zM49.707 419.646H88.04v1H49.707zM49.707 412.355h55v1h-55z"/><circle cx="72.736" cy="461.471" r="13.5" fill="#7ac6f0"/><path fill="#fbfbfb" d="M79.292 455.517l-8.665 8.665-4.446-4.446-1.621 1.62 6.067 6.068 10.286-10.286z"/><g><path fill="#fff" d="M252.52 248.827l115.308 79.032"/><path fill="#5e6d8b" d="M252.828 248.416l115.316 79.025-.566.825-115.315-79.025z"/><path fill="#5e6d8b" d="M367.55 248.38l.563.826-115.955 79.095-.563-.826z"/><path fill="#fff" d="M251.828 248.827l58 51.056 58-51.056"/><path fill="#5e6d8b" d="M309.828 300.549l-.33-.291-58-51.056.661-.751 57.669 50.766 57.67-50.766.661.751z"/><g><path d="M368.328 328.358h-117v-80.032h117v80.032zm-116-1h115v-78.032h-115v78.032z" fill="#5e6d8b"/></g><g><circle cx="310.174" cy="270.504" r="13.5" fill="#ee73a7"/><path fill="#fbfbfb" d="M316.73 264.551l-8.665 8.665-4.447-4.447-1.62 1.621 6.067 6.067 10.286-10.285z"/></g></g><g><path d="M766.491 526.746h-202a6.758 6.758 0 0 1-6.75-6.75V241.644a6.758 6.758 0 0 1 6.75-6.75h202a6.758 6.758 0 0 1 6.75 6.75v278.352a6.758 6.758 0 0 1-6.75 6.75zm-202-290.852a5.757 5.757 0 0 0-5.75 5.75v278.352c0 3.17 2.579 5.75 5.75 5.75h202c3.171 0 5.75-2.58 5.75-5.75V241.644c0-3.17-2.579-5.75-5.75-5.75h-202z" fill="#5e6d8b"/><path d="M763.741 496.394h-196.5v-252h196.5v252zm-195.5-1h194.5v-250h-194.5v250zM665.491 520.496c-5.697 0-10.333-4.636-10.333-10.333s4.636-10.333 10.333-10.333c5.698 0 10.334 4.635 10.334 10.333s-4.635 10.333-10.334 10.333zm0-19.667c-5.146 0-9.333 4.187-9.333 9.333s4.187 9.333 9.333 9.333 9.334-4.187 9.334-9.333-4.187-9.333-9.334-9.333z" fill="#5e6d8b"/><path fill="#fff" d="M593.289 425.897l56.494 38.721"/><path fill="#5e6d8b" d="M593.522 425.49l56.49 38.725-.565.825-56.49-38.725z"/><path fill="#5e6d8b" d="M649.513 425.497l.562.826-56.845 38.704-.562-.826z"/><path fill="#fff" d="M592.95 425.897l28.417 25.015 28.416-25.015"/><path fill="#5e6d8b" d="M621.366 451.578l-28.746-25.306.66-.751 28.086 24.725 28.087-24.725.66.751z"/><path d="M650.283 465.118H592.45v-39.721h57.833v39.721zm-56.833-1h55.833v-37.721H593.45v37.721z" fill="#5e6d8b"/><circle cx="621.536" cy="436.518" r="6.614" fill="#ee73a7"/><path fill="#fbfbfb" d="M624.748 433.601l-4.245 4.245-2.179-2.178-.794.794 2.973 2.973 5.039-5.04z"/><g><path fill="#fff" d="M593.289 374.301l56.494 38.721"/><path fill="#5e6d8b" d="M593.525 373.896l56.49 38.724-.565.825-56.49-38.724z"/><path fill="#5e6d8b" d="M649.514 373.9l.562.826-56.845 38.704-.562-.826z"/><path fill="#fff" d="M592.95 374.301l28.417 25.014 28.416-25.014"/><path fill="#5e6d8b" d="M621.366 399.981l-28.746-25.305.66-.751 28.086 24.724 28.087-24.724.66.751z"/><g><path d="M650.283 413.522H592.45v-39.721h57.833v39.721zm-56.833-1h55.833v-37.721H593.45v37.721z" fill="#5e6d8b"/></g><g><circle cx="621.536" cy="384.921" r="6.614" fill="#ee73a7"/><path fill="#fbfbfb" d="M624.748 382.005l-4.245 4.245-2.179-2.179-.794.795 2.973 2.972 5.039-5.039z"/></g></g><g><path fill="#fff" d="M593.289 322.704l56.494 38.721"/><path fill="#5e6d8b" d="M593.527 322.303l56.49 38.724-.565.825-56.49-38.725z"/><path fill="#5e6d8b" d="M649.513 322.303l.563.826-56.846 38.704-.562-.826z"/><path fill="#fff" d="M592.95 322.704l28.417 25.015 28.416-25.015"/><path fill="#5e6d8b" d="M621.366 348.385L592.62 323.08l.66-.751 28.086 24.724 28.087-24.724.66.751z"/><g><path d="M650.283 361.925H592.45v-39.721h57.833v39.721zm-56.833-1h55.833v-37.721H593.45v37.721z" fill="#5e6d8b"/></g><g><circle cx="621.536" cy="333.325" r="6.614" fill="#ee73a7"/><path fill="#fbfbfb" d="M624.748 330.408l-4.245 4.245-2.179-2.178-.794.794 2.973 2.973 5.039-5.04z"/></g></g><g><path fill="#fff" d="M593.289 271.108l56.494 38.721"/><path fill="#5e6d8b" d="M593.53 270.708l56.49 38.724-.565.825-56.491-38.724z"/><path fill="#5e6d8b" d="M649.514 270.706l.562.826-56.845 38.704-.563-.826z"/><path fill="#fff" d="M592.95 271.108l28.417 25.014 28.416-25.014"/><path fill="#5e6d8b" d="M621.366 296.788l-28.746-25.305.66-.751 28.086 24.724 28.087-24.724.66.751z"/><g><path d="M650.283 310.329H592.45v-39.721h57.833v39.721zm-56.833-1h55.833v-37.721H593.45v37.721z" fill="#5e6d8b"/></g><g><circle cx="621.536" cy="281.728" r="6.614" fill="#ee73a7"/><path fill="#fbfbfb" d="M624.748 278.812l-4.245 4.245-2.179-2.179-.794.794 2.973 2.973 5.039-5.039z"/></g></g><g><path fill="#fff" d="M681.539 425.897l56.494 38.721"/><path fill="#5e6d8b" d="M681.768 425.495l56.49 38.724-.565.825-56.49-38.725z"/><path fill="#5e6d8b" d="M737.764 425.497l.562.826-56.845 38.704-.562-.826z"/><path fill="#fff" d="M681.2 425.897l28.417 25.015 28.416-25.015"/><path fill="#5e6d8b" d="M709.616 451.578l-28.746-25.306.66-.751 28.086 24.725 28.087-24.725.66.751z"/><g><path d="M738.533 465.118H680.7v-39.721h57.833v39.721zm-56.833-1h55.833v-37.721H681.7v37.721z" fill="#5e6d8b"/></g><g><circle cx="709.786" cy="436.518" r="6.614" fill="#ee73a7"/><path fill="#fbfbfb" d="M712.998 433.601l-4.245 4.245-2.179-2.178-.794.794 2.973 2.973 5.039-5.04z"/></g></g><g><path fill="#fff" d="M681.539 374.301l56.494 38.721"/><path fill="#5e6d8b" d="M681.77 373.9l56.49 38.725-.564.824-56.491-38.724z"/><path fill="#5e6d8b" d="M737.765 373.9l.562.826-56.845 38.704-.563-.826z"/><path fill="#fff" d="M681.2 374.301l28.417 25.014 28.416-25.014"/><path fill="#5e6d8b" d="M709.616 399.981l-28.746-25.305.66-.751 28.086 24.724 28.087-24.724.66.751z"/><g><path d="M738.533 413.522H680.7v-39.721h57.833v39.721zm-56.833-1h55.833v-37.721H681.7v37.721z" fill="#5e6d8b"/></g><g><circle cx="709.786" cy="384.921" r="6.614" fill="#ee73a7"/><path fill="#fbfbfb" d="M712.998 382.005l-4.245 4.245-2.179-2.179-.794.795 2.973 2.972 5.039-5.039z"/></g></g><g><path fill="#fff" d="M681.539 322.704l56.494 38.721"/><path fill="#5e6d8b" d="M681.772 322.307l56.491 38.724-.565.825-56.49-38.724z"/><path fill="#5e6d8b" d="M737.764 322.303l.562.826-56.845 38.704-.562-.826z"/><path fill="#fff" d="M681.2 322.704l28.417 25.015 28.416-25.015"/><path fill="#5e6d8b" d="M709.616 348.385L680.87 323.08l.66-.751 28.086 24.724 28.087-24.724.66.751z"/><g><path d="M738.533 361.925H680.7v-39.721h57.833v39.721zm-56.833-1h55.833v-37.721H681.7v37.721z" fill="#5e6d8b"/></g><g><circle cx="709.786" cy="333.325" r="6.614" fill="#ee73a7"/><path fill="#fbfbfb" d="M712.998 330.408l-4.245 4.245-2.179-2.178-.794.794 2.973 2.973 5.039-5.04z"/></g></g><g><path fill="#fff" d="M681.539 271.108l56.494 38.721"/><path fill="#5e6d8b" d="M681.775 270.712l56.49 38.725-.565.824-56.49-38.724z"/><path fill="#5e6d8b" d="M737.764 270.706l.563.826-56.846 38.704-.562-.826z"/><path fill="#fff" d="M681.2 271.108l28.417 25.014 28.416-25.014"/><path fill="#5e6d8b" d="M709.616 296.788l-28.746-25.305.66-.751 28.086 24.724 28.087-24.724.66.751z"/><g><path d="M738.533 310.329H680.7v-39.721h57.833v39.721zm-56.833-1h55.833v-37.721H681.7v37.721z" fill="#5e6d8b"/></g><g><circle cx="709.786" cy="281.728" r="6.614" fill="#ee73a7"/><path fill="#fbfbfb" d="M712.998 278.812l-4.245 4.245-2.179-2.179-.794.794 2.973 2.973 5.039-5.039z"/></g></g></g><g><path fill="#fff" d="M625.542 223.628l-67.046-55.835-67.046 55.835v91.358h134.092z"/><path d="M626.042 315.486H490.95v-92.092l67.546-56.251 67.546 56.251v92.092zm-134.092-1h133.092v-90.624l-66.546-55.418-66.546 55.418v90.624z" fill="#5e6d8b"/><path fill="#5e6d8b" d="M625.27 223.164l.563.826-134.04 91.432-.563-.826z"/><path fill="#5e6d8b" d="M491.732 223.186l134.088 91.35-.563.826-134.088-91.35z"/><g><path fill="#7ac6f0" d="M582.533 199.13l-31.77 31.77-16.304-16.304-5.943 5.944 22.247 22.246 37.713-37.713z"/></g></g><g><path d="M1267.688 504.419l-.298-.402-135.017-182.592 10.381-7.676.298.402 135.017 182.592-10.381 7.676zm-133.916-182.784l134.125 181.385 8.773-6.487-134.125-181.385-8.773 6.487z" fill="#525e77"/><path fill="#525e77" d="M1163.55 342.681l.593.804-9.58 7.077-.593-.803zM1102.291 269.157l15.163 20.509-.805.595-15.163-20.508zM1077.464 306.119l24.8 5.963-.234.972-24.8-5.963zM1105.033 339.037l.445.895-22.837 11.357-.446-.895zM1124.464 357.961l.916.4-10.194 23.38-.916-.4zM1144.176 256.723l.998.062-1.568 25.456-.998-.061zM1185.222 274.236l.725.689-17.567 18.49-.725-.688z"/><g><path fill="#525e77" d="M1205.289 313.983l.113.994-25.342 2.89-.113-.994z"/></g></g><g><path d="M1031.282 300.203c-5.119 0-9.492-1.669-12.648-4.825l-.306-.311.02-.348c1.309-4.667 5.77-13.291 20.936-18.608 6.566-2.305 12.051-5.629 16.299-9.881 3.029-3.03 5.376-6.455 6.973-10.179l.388-.903.502.845c5.34 8.998 1.764 22.98-8.504 33.248-6.864 6.864-15.708 10.962-23.66 10.962zm-11.892-5.488c3.013 2.958 7.102 4.488 11.893 4.488 7.691 0 16.271-3.988 22.951-10.668 9.622-9.622 13.223-22.538 8.827-31.166-1.629 3.485-3.903 6.7-6.771 9.569-4.355 4.358-9.966 7.763-16.675 10.117-14.444 5.064-18.871 13.123-20.225 17.66zm-2.77-1.765l-.512-.903c-5.097-8.99-1.453-22.858 8.663-32.975 6.865-6.864 15.71-10.961 23.66-10.961 5.118 0 9.491 1.668 12.648 4.825l.221.221-.071.328c-1.843 5.363-7.237 15.168-22.667 20.578-13.805 4.841-19.342 12.419-21.556 17.924l-.386.963zm31.812-43.839c-7.691 0-16.271 3.988-22.953 10.668-9.462 9.463-13.122 22.24-8.981 30.856 2.539-5.588 8.369-12.83 21.734-17.516 14.757-5.175 20.073-14.422 21.95-19.671-2.911-2.821-6.984-4.337-11.75-4.337zm30.761 7.549s.001 0 0 0c-.991 0-1.987-.096-2.959-.285l-.513-.112-.091-.274c-1.524-4.602-2.646-14.246 6.958-27.133 4.157-5.581 6.848-11.402 7.994-17.303.819-4.206.85-8.357.092-12.337l-.184-.966.889.42c9.459 4.477 14.309 18.07 11.531 32.323-2.849 14.632-13.045 25.667-23.717 25.667zm-2.701-1.257c.928.176 1.815.257 2.7.257 10.202 0 19.977-10.687 22.735-24.859 2.604-13.356-1.63-26.079-10.099-30.777.599 3.8.51 7.737-.265 11.719-1.177 6.049-3.927 12.007-8.174 17.709-9.146 12.275-8.311 21.432-6.897 25.951zm-3.286.084l-.929-.462c-9.25-4.607-13.98-18.144-11.247-32.188 2.851-14.633 13.048-25.667 23.72-25.667.991 0 1.986.096 2.958.285l.343.035.087.337c1.471 5.478 2.479 16.624-7.292 29.734-8.738 11.73-9.096 21.109-7.856 26.912l.216 1.014zm11.544-57.318c-10.202 0-19.978 10.687-22.737 24.859-2.558 13.136 1.55 25.777 9.799 30.608-1.017-6.053-.228-15.317 8.231-26.673 9.344-12.536 8.585-23.175 7.208-28.578a14.613 14.613 0 0 0-2.501-.216zm-65.659 54.655h-.002c-10.512 0-18.778-4.604-21.573-12.014l-.146-.398.156-.318c2.674-3.189 9.111-8.54 22.18-8.54 1.471 0 3.007.069 4.565.206 6.914.606 13.312-.169 18.92-2.286 4.009-1.513 7.558-3.667 10.547-6.403l.726-.664.109.978c1.158 10.4-7.86 21.668-21.444 26.792-4.59 1.732-9.443 2.647-14.038 2.647zm-20.613-12.306c2.726 7.009 10.595 11.306 20.611 11.306h.002c4.476 0 9.207-.893 13.684-2.583 12.73-4.802 21.332-15.088 20.882-24.762-2.92 2.505-6.317 4.499-10.112 5.931-5.751 2.17-12.291 2.968-19.361 2.347a51.556 51.556 0 0 0-4.478-.202c-12.365 0-18.557 4.888-21.228 7.963zm-1.797-2.75l-.095-1.033c-.94-10.29 8.093-21.425 21.479-26.477 4.589-1.731 9.443-2.646 14.039-2.646 10.511 0 18.777 4.602 21.572 12.011l.11.292-.199.271c-3.38 3.587-11.097 9.605-24.816 9.605-1.404 0-2.855-.065-4.314-.193a54.633 54.633 0 0 0-4.749-.213c-11.794 0-18.625 4.169-22.278 7.666l-.749.717zm35.424-29.157c-4.477 0-9.209.893-13.686 2.582-12.522 4.725-21.121 14.859-20.896 24.417 3.945-3.452 10.852-7.226 22.186-7.226 1.561 0 3.188.073 4.837.217 1.43.125 2.852.189 4.227.189 13.056 0 20.494-5.573 23.871-9.063-2.774-6.885-10.599-11.116-20.539-11.116z" fill="#525e77"/></g><g><path fill="#fff" d="M1572.312 474.205h-103.173l-18.79-186.985h140.754z"/><path d="M1572.764 474.705h-104.077l-.045-.45-18.846-187.534h141.859l-.056.55-18.835 187.434zm-103.173-1h102.269l18.69-185.984h-139.648l18.689 185.984z" fill="#525e77"/><path fill="#7ac6f0" d="M1553.403 350.11l-37.431 37.431-19.209-19.209-7.002 7.002 26.211 26.211 44.433-44.433z"/><path fill="#fff" d="M1443.019 280.788h155.414v12.864h-155.414z"/><path d="M1598.933 294.152h-156.414v-13.864h156.414v13.864zm-155.414-1h154.414v-11.864h-154.414v11.864z" fill="#525e77"/><g><path d="M1651.943 449.192s15.338 9.385 15.338 27.323c0 17.938-14.089 16.497-14.089 16.497s-8.451-.464-11.585-5.598" fill="#fff"/><path d="M1653.964 493.542a8.67 8.67 0 0 1-.823-.033c-.332-.018-8.728-.538-11.961-5.835l.854-.521c2.958 4.846 11.104 5.354 11.186 5.359.072.006 5.149.468 9.024-3.039 3.011-2.725 4.537-7.085 4.537-12.959 0-17.438-14.948-26.804-15.099-26.896l.521-.853c.156.095 15.577 9.739 15.577 27.749 0 6.175-1.641 10.788-4.877 13.71-3.285 2.967-7.247 3.318-8.939 3.318z" fill="#525e77"/><path d="M1618.048 423.978s33.003.281 35.032 32.74c2.029 32.459-24.136 38.597-29.515 35.629" fill="#fff"/><path d="M1627.038 493.528c-1.547 0-2.833-.256-3.715-.742l.482-.876c2.255 1.245 8.801.799 15.227-3.271 5.583-3.536 14.768-12.381 13.548-31.889-1.977-31.629-34.211-32.269-34.536-32.271l.008-1c.335.003 33.492.661 35.526 33.209 1.252 20.022-8.241 29.142-14.011 32.796-4.404 2.788-9.104 4.044-12.529 4.044z" fill="#525e77"/><path d="M1575.245 505.881s61.199 6.83 57.548-43.685c-3.652-50.515-42.806-60.658-77.091-40.371" fill="#fff"/><path d="M1582.126 506.669c-4.165 0-6.846-.282-6.937-.292l.111-.994c.304.034 30.691 3.218 46.938-12.411 7.616-7.327 10.999-17.669 10.054-30.741-1.593-22.045-9.984-37.648-24.267-45.123-14.413-7.542-33.877-5.62-52.07 5.146l-.51-.86c18.493-10.941 38.321-12.876 53.044-5.171 10.185 5.33 22.754 17.626 24.801 45.937.968 13.383-2.519 23.994-10.361 31.536-11.753 11.305-30.669 12.973-40.803 12.973z" fill="#525e77"/><path d="M1582.278 426.491s17.041-2.029 26.17 6.289" fill="#fff"/><path d="M1608.112 433.149c-8.853-8.064-25.605-6.182-25.775-6.162l-.118-.993c.706-.085 17.373-1.96 26.567 6.416l-.674.739z" fill="#525e77"/><g><path d="M1512.49 476.515c-4.057-13.913 10.82-42.315 34.623-42.315 23.803 0 28.131 37.058 28.131 37.058v34.623s-19.205 5.41-27.049 13.795-11.631-14.066-39.492-18.394c0 .001-7.032-12.207 3.787-24.767z" fill="#fff"/><path d="M1544.735 522.035c-2.398 0-4.664-2.167-7.801-5.167-5.316-5.085-13.351-12.769-28.308-15.092l-.236-.037-.12-.208c-.071-.125-7.009-12.527 3.667-25.139-2.027-7.466 1.188-18.823 7.886-27.751 4.185-5.58 13.296-14.942 27.291-14.942 23.972 0 28.585 37.125 28.629 37.5l.003 35.06-.364.103c-.19.054-19.162 5.469-26.82 13.656-1.272 1.357-2.523 2.017-3.827 2.017zm-35.706-21.207c15.107 2.417 23.219 10.175 28.597 15.318 2.968 2.838 5.112 4.889 7.109 4.889 1.026 0 2.011-.541 3.096-1.701 7.347-7.853 24.145-13.018 26.915-13.83v-34.247c-.039-.308-4.549-36.558-27.632-36.558-13.56 0-22.418 9.111-26.491 14.542-6.599 8.798-9.745 19.955-7.651 27.133l.075.261-.177.206c-9.698 11.257-4.672 22.351-3.841 23.987z" fill="#525e77"/></g><g><path d="M1512.49 476.515s5.951-4.175 11.361-4.175c4.771 0 19.851 7.153 27.242 25.17a36.507 36.507 0 0 1 2.7 15.707 24.24 24.24 0 0 1-.188 2.073" fill="#fff"/><path d="M1554.101 515.358l-.99-.139c.083-.594.145-1.277.184-2.029.271-5.228-.65-10.584-2.664-15.491-7.263-17.707-21.899-24.86-26.779-24.86-5.185 0-11.015 4.044-11.073 4.084l-.574-.818c.248-.174 6.144-4.266 11.647-4.266 5.077 0 20.261 7.332 27.705 25.48 2.068 5.042 3.015 10.548 2.736 15.922-.04.782-.105 1.494-.192 2.117z" fill="#525e77"/></g><g><path d="M1508.703 501.283s-3.42 14.56 7.514 21.918c4.052 2.727 9.093 3.599 13.895 2.711 3.84-.711 8.233-2.495 9.932-6.84" fill="#fff"/><path d="M1526.51 526.741c-3.814 0-7.53-1.08-10.571-3.126-11.093-7.465-7.757-22.298-7.722-22.447l.973.229c-.033.142-3.206 14.313 7.308 21.388 3.804 2.562 8.734 3.521 13.524 2.634 3.444-.637 7.898-2.287 9.558-6.53l.932.364c-1.446 3.697-5.01 6.169-10.308 7.149a20.341 20.341 0 0 1-3.694.339z" fill="#525e77"/></g></g></g><g><path d="M1506.638 262.007c-.367-.344-9.006-8.542-9.179-18.908-.088-5.282 2.068-10.161 6.41-14.502 15.144-15.145 5.767-37.824 5.67-38.051l.92-.391c.1.233 9.732 23.533-5.883 39.149-4.143 4.142-6.2 8.778-6.117 13.778.166 9.946 8.775 18.113 8.862 18.194l-.683.731z" fill="#525e77"/></g><g><circle cx="1169.549" cy="199.13" r="23.17" fill="#ee73a7"/><path fill="#fbfbfb" d="M1180.8 188.912l-14.871 14.872-7.632-7.632-2.782 2.782 10.414 10.414 17.653-17.654z"/></g><g><path fill="#ee73a7" d="M182.707 575.088h39v3h-39z"/></g><g><path fill="#ee73a7" d="M1336.828 160.222h39v3h-39z"/></g><g><path fill="#ee73a7" d="M636.325 103.642h39v3h-39z"/></g><g><path fill="#ee73a7" d="M1166.222 622.803h39v3h-39z"/></g></svg>