<svg xmlns="http://www.w3.org/2000/svg" viewBox="0 0 281.549 328.46"><g fill="none" stroke="#525e77" stroke-miterlimit="10"><path d="M136.568 145.568l9.577-7.083 134.73 182.2-9.577 7.083z" stroke-width="1.00006"/><path d="M157.74 174.224l9.577-7.081M120.595 113.974l-15.164-20.508M105.627 136.572l-24.799-5.962M108.686 163.505l-22.829 11.373M128.342 182.17l-10.178 23.386M146.587 106.284l1.566-25.457M171.442 117.101l17.562-18.495M183.528 141.363l25.342-2.879"/></g><path d="M20.024 115.842c-4.906-8.653-1.569-22.224 8.582-32.375C40.133 71.941 56.07 69.194 64.207 77.33c.009.01.019.022.031.033-1.629 4.739-6.816 14.819-22.36 20.269-14.242 4.995-19.734 12.938-21.854 18.21zm39.392-25.217c-3.718 3.721-9.002 7.372-16.487 9.999-15.191 5.326-19.435 14.048-20.619 18.272.057.057.104.117.158.17 8.136 8.137 24.075 5.389 35.6-6.136 10.256-10.256 13.555-24 8.428-32.639-1.235 2.876-3.381 6.635-7.08 10.334zM27.981 53.141c16.41 1.438 25.288-5.612 28.723-9.258-.006-.014-.01-.031-.015-.044-4.061-10.764-19.716-14.827-34.966-9.073C8.293 39.834-.34 50.824.565 60.73c4.104-3.929 12.381-8.905 27.416-7.589zm8.451 20.609c13.571-5.119 22.237-16.285 21.124-26.27-2.31 2.114-5.814 4.656-10.708 6.503-4.92 1.856-11.24 3.008-19.141 2.316-16.035-1.406-23.497 4.794-26.318 8.156.029.075.049.148.075.218 4.062 10.769 19.717 14.833 34.968 9.077zm47.493-22.448c9.846-13.21 8.51-24.468 7.211-29.306-.015-.002-.03-.007-.044-.01-11.294-2.199-22.975 8.989-26.09 24.987-2.744 14.093 2.075 27.21 10.978 31.644-1.186-5.556-1.071-15.212 7.945-27.315zm10.72-28.14c.586 3.077.908 7.394-.092 12.527-1.004 5.163-3.346 11.145-8.084 17.506-9.619 12.906-8.265 22.511-6.885 26.677.079.016.152.036.225.053 11.295 2.199 22.974-8.987 26.089-24.987 2.775-14.237-2.174-27.479-11.253-31.776z" fill="none" stroke="#525e77" stroke-miterlimit="10"/><circle cx="173.029" cy="23.171" r="23.17" fill="#ee73a7"/><path fill="#fbfbfb" d="M184.281 12.953l-14.872 14.871-7.632-7.631-2.782 2.782 10.414 10.413 17.653-17.653z"/></svg>